<svg width="20" height="20" viewBox="0 0 20 20" fill="none" xmlns="http://www.w3.org/2000/svg">
<path fill-rule="evenodd" clip-rule="evenodd" d="M16.707 5.293C16.8945 5.48053 16.9998 5.73484 16.9998 6C16.9998 6.26516 16.8945 6.51947 16.707 6.707L8.70701 14.707C8.51948 14.8945 8.26517 14.9998 8.00001 14.9998C7.73485 14.9998 7.48054 14.8945 7.29301 14.707L3.29301 10.707C3.11085 10.5184 3.01006 10.2658 3.01234 10.0036C3.01461 9.7414 3.11978 9.49059 3.30519 9.30518C3.4906 9.11977 3.74141 9.0146 4.00361 9.01233C4.26581 9.01005 4.51841 9.11084 4.70701 9.293L8.00001 12.586L15.293 5.293C15.4805 5.10553 15.7348 5.00021 16 5.00021C16.2652 5.00021 16.5195 5.10553 16.707 5.293Z" fill="#5ABAB6"/>
</svg>
