<svg width="1440" height="900" fill="none" xmlns="http://www.w3.org/2000/svg">
  <g opacity=".2" clip-path="url(#clip0)">
    <path d="M1439.1-321H0v1439.1h1439.1V-321z" fill="#FED8C1"/>
    <path d="M1425.61 215.245c4.86-34.898-4.5-73.754-31.66-96.06-27.34-22.306-73.75-21.047-93.72 8.095-10.26 14.751-12.41 33.639-19.25 50.189-6.84 16.549-22.67 32.739-40.3 29.141-12.23-2.518-20.5-13.311-29.86-21.586-9.35-8.275-24.28-14.031-33.64-5.757-3.77 3.238-5.75 8.095-8.45 12.233-8.28 12.232-25.36 17.629-39.22 12.412-11.15-4.317-22.12-14.571-33.27-10.254-7.2 2.879-10.8 11.153-17.45 15.291-8.46 5.397-19.43 2.518-29.33 1.259-17.98-2.338-36.15.36-53.962 3.058-57.924 8.815-115.848 17.809-173.771 26.624 55.585 11.872 113.689-3.418 169.993 4.497 29.86 4.137 59 14.93 89.22 15.47 21.41.36 43-4.497 64.04-.18 31.13 6.476 59.19 32.74 90.31 26.084 24.46-5.217 43.71-30.401 68.72-28.063 7.01.72 13.67 3.598 20.32 6.297 22.13 9.354 46.59 17.988 69.98 12.232 23.38-5.757 42.99-32.02 33.1-53.966" fill="url(#paint0_linear)"/>
    <path opacity=".15" d="M754.988 506.483c188.068 0 340.532-152.459 340.532-340.527 0-188.068-152.464-340.528-340.532-340.528-188.068 0-340.527 152.46-340.527 340.528S566.92 506.483 754.988 506.483z" fill="#fff"/>
    <path d="M754.988 370.308c112.86 0 204.352-91.492 204.352-204.352 0-112.861-91.492-204.353-204.352-204.353-112.861 0-204.353 91.492-204.353 204.353 0 112.86 91.492 204.352 204.353 204.352z" fill="url(#paint1_linear)"/>
    <path d="M1109.37 399.27l132.75-99.658 70.34 49.829L1440 256.439v266.414h-344.48l13.85-123.583z" fill="#FC7D48"/>
    <path d="M1242.12 299.612l48.39 66.019 21.95-16.19-70.34-49.829z" fill="#FF9E49"/>
    <path d="M210.289 213.266l415.54 336.21H.899V385.239l209.39-171.973z" fill="#FC7D48"/>
    <path d="M210.288 213.266l38.316 86.346h-28.962l73.754 70.876 67.278-35.618-150.386-121.604z" fill="#FF9E49"/>
    <path d="M.9 486.156s122.863-14.391 422.735-186.364h53.966l17.989-25.184 255.441-126.461L1440 472.484V718.93H.9V486.156z" fill="#FC7D48"/>
    <path d="M751.031 148.147l200.035 165.856-149.487-25.184 291.781 172.152L1440 472.304 751.031 148.147z" fill="#FF9E49"/>
    <path d="M1093.36 460.971L909.152 608.479l245.368-147.508h-61.16zM477.601 299.612l-67.098 66.019 41.914-66.019h25.184z" fill="#FF9E49"/>
    <path d="M1420.75 522.853c0-2.519-1.44-4.857-2.88-6.836-1.62-2.159-2.69-4.497-4.13-6.836-1.62-2.698-3.42-4.857-3.78-8.095 2.88-2.698 5.76 6.116 9.53 4.857 2.7-.899 1.44-4.857-.18-7.195-3.59-5.397-5.93-11.333-7.37-17.629-.72-3.058-1.26-6.296-1.62-9.534-.18-1.26 0-8.095-2.88-6.296-.9.539-1.08 1.619-1.44 2.698-1.26 5.217-2.34 10.613-3.78 15.83-1.08 4.137-1.62 9.894-4.31 13.312-1.44 1.978-3.24 3.418-3.06 6.116 0 .18 0 .36.18.539.18.36.54.36.72.54 3.06 1.079 5.21-1.259 7.19-3.238.18-.36.54-.539.9-.719.36-.18.72-.18 1.08.18.72.719 0 2.698 0 3.597-.36 2.699-1.62 5.217-3.24 7.376-2.51 3.597-5.93 6.476-8.09 10.433-.18.18-.18.54-.36.9h-15.47l-104.34 104.334c-1.79-3.777-5.03-6.656-7.55-9.893-1.44-1.979-2.88-3.958-3.42-6.297-.18-.539-.9-2.698-.54-3.238.9-1.259 2.16.36 2.52 1.08.72 1.079 1.44 2.338 2.16 3.418a6.2 6.2 0 002.16 2.158c.9.54 1.98.72 2.88.36 1.25-.54 1.79-1.979 1.97-3.418.18-2.158-.72-4.137-1.97-5.936-1.26-1.799-2.7-3.238-4.14-4.857a29.355 29.355 0 01-3.06-3.598c-1.08-1.259-5.4-9.534-2.16-10.613.72-.18 1.62.18 2.34.719.54.54 1.08 1.26 1.62 1.979 1.26 1.439 3.24 2.339 5.22 2.159.53 0 1.07-.18 1.43-.36.72-.54.9-1.259.9-2.159 0-2.518-1.44-4.677-2.87-6.835-1.62-2.159-2.7-4.497-4.14-6.836-1.62-2.698-3.42-4.857-3.78-8.095 2.88-2.698 5.76 6.116 9.53 4.857 2.7-.899 1.44-4.857-.18-7.196-3.59-5.396-5.93-11.332-7.37-17.628-.72-3.059-1.26-6.297-1.62-9.535-.18-1.259 0-8.094-2.88-6.296-.9.54-1.08 1.619-1.44 2.699-1.26 5.216-2.34 10.613-3.77 15.83-1.08 4.137-1.62 9.894-4.32 13.311-1.44 1.979-3.24 3.418-3.06 6.117 0 .18 0 .359.18.539.18.36.54.36.72.54 3.06 1.079 5.22-1.259 7.19-3.238.18-.18.54-.54.9-.719.36-.18.72-.18 1.08.179.72.72 0 2.699 0 3.598-.36 2.698-1.62 5.217-3.23 7.375-2.52 3.598-5.94 6.476-8.1 10.434-.36.72-.72 1.619-.72 2.518.18 1.799 1.8 2.699 3.42 2.699 2.16.18 3.24-1.439 4.14-3.238.54-1.259 1.08-2.519 2.16-3.058.35-.18.71-.18.89 0 0 .18 0 .18.18.359.18 2.519-.36 5.037-1.43 7.376-1.08 2.338-2.88 3.957-4.86 5.756-1.08.9-1.98 1.979-2.7 3.238-.54.9-.9 1.979-.72 2.878.18 1.08.72 1.979 1.62 2.339 1.26.54 2.88-.18 3.78-1.259.54-.54 3.24-5.037 4.31-3.238.36.539-.36 3.058-.54 3.777a50.797 50.797 0 01-2.15 7.016c-.18.18-.18.54-.36.72l-5.58-5.577h-60.98c.18-3.418-1.98-7.016-3.96-9.354-3.24-3.778-7.19-8.095-6.3-13.132 3.42.36 4.32 6.116 7.74 5.936 2.52 0 3.42-3.417 2.88-5.756-1.08-5.217-5.4-8.814-8.64-12.772-1.44-1.979-2.87-3.958-3.41-6.296-.18-.54-.9-2.698-.54-3.238.9-1.259 2.15.36 2.51 1.079.72 1.08 1.44 2.339 2.16 3.418.54.9 1.26 1.619 2.16 2.159.9.539 1.98.719 2.88.36 1.26-.54 1.8-1.979 1.98-3.418.18-2.159-.72-4.138-1.98-5.937-1.26-1.798-2.7-3.238-4.14-4.857a29.346 29.346 0 01-3.06-3.597c-1.08-1.26-5.39-9.534-2.15-10.614.71-.18 1.61.18 2.33.72.54.54 1.08 1.259 1.62 1.979 1.26 1.439 3.24 2.338 5.22 2.158.54 0 1.08-.18 1.44-.36.72-.539.9-1.259.9-2.158 0-2.519-1.44-4.677-2.88-6.836-1.62-2.159-2.7-4.497-4.14-6.836-1.62-2.698-3.42-4.857-3.77-8.095 2.87-2.698 5.75 6.117 9.53 4.857 2.7-.899 1.44-4.857-.18-7.195-3.6-5.397-5.94-11.333-7.38-17.629-.72-3.058-1.26-6.296-1.62-9.534-.18-1.259 0-8.095-2.87-6.296-.9.539-1.08 1.619-1.44 2.698-1.26 5.217-2.34 10.613-3.78 15.83-1.08 4.138-1.62 9.894-4.32 13.312-1.44 1.979-3.24 3.418-3.06 6.116 0 .18 0 .36.18.54.18.36.54.36.72.539 3.06 1.08 5.22-1.259 7.2-3.238.18-.179.54-.539.9-.719.36-.18.72-.18 1.08.18.72.719 0 2.698 0 3.598-.36 2.698-1.62 5.216-3.24 7.375-2.52 3.598-5.94 6.476-8.09 10.433-.36.72-.72 1.619-.72 2.519.18 1.799 1.79 2.698 3.41 2.698 2.16.18 3.24-1.439 4.14-3.238.54-1.259 1.08-2.518 2.16-3.058.36-.18.72-.18.9 0 0 .18 0 .18.18.36.18 2.518-.36 5.037-1.44 7.375-1.08 2.339-2.88 3.958-4.86 5.757a11.765 11.765 0 00-2.7 3.238c-.54.899-.89 1.978-.72 2.878.18 1.079.72 1.979 1.62 2.338 1.26.54 2.88-.18 3.78-1.259.54-.539 3.24-5.037 4.32-3.238.36.54-.36 3.058-.54 3.778a52.255 52.255 0 01-2.16 7.015c-1.8 4.677-4.68 8.815-8.09 12.413-1.44 1.439-3.24 3.238-3.06 5.396.18 2.879 3.78 4.138 6.11 3.418 3.42-.899 3.24-4.497 5.76-6.296.18-.18.36-.18.54-.18.54 0 .54.72.54 1.259-.72 4.857-2.7 9.355-5.4 13.312-1.44 1.979-3.06 3.958-4.31 6.116-.36.54-.54 1.26-.72 1.799h-17.27c-.72-1.259-1.44-2.518-2.52-3.418-1.08-1.259-2.52-2.158-3.6-3.418-.72-.719-3.78-6.116-.72-5.936.36 0 .72.18 1.08.54.72.719 1.26 1.619 1.98 2.338.72.72 1.8 1.26 2.7.9 1.26-.54 1.26-2.519.72-3.778-.9-2.878-2.52-5.576-4.5-7.915-1.8-2.159-4.86-4.317-3.78-7.375.18-.36.36-.72.72-1.08.54-.359 1.44-.359 1.98 0 .54.36 1.08.9 1.44 1.439.72.72 3.42 5.397 4.68 2.879.18-.36.18-.72.18-1.08-.18-3.597-1.44-7.015-3.42-10.073-1.8-2.699-4.32-5.037-5.58-7.915-.72-1.799-.9-5.037 1.62-5.037 2.16 0 3.6 2.518 5.22 3.418 1.26.719 3.42.539 3.78-.9.18-.539 0-1.259-.18-1.799-1.08-3.238-2.7-6.476-5.22-8.814-2.34-2.339-4.32-3.598-5.58-6.836-.54-1.259-.72-2.878.36-3.598.9-.539 1.98-.18 2.88.54.9.719 1.26 1.619 1.98 2.339.72.719 1.98 1.079 2.7.539.72-.36.9-1.439.72-2.158-.18-.72-.54-1.44-1.08-2.159-1.44-2.339-2.88-4.497-4.32-6.656-1.08-1.799-2.88-3.958-3.24-5.936-.18-.72 0-1.619.72-1.979.54-.18 1.08 0 1.44.18l1.08 1.079c.72.72 1.8 1.259 2.7 1.439.72.18 1.44 0 1.98-.539.36-.36.54-1.08.36-1.619-.18-2.339-2.16-4.138-3.78-5.757-1.08-1.079-6.48-7.735-3.96-9.174 1.98-1.079 4.5 5.037 6.66 2.518.54-.719.54-1.798.18-2.518-.36-.899-.9-1.799-1.62-2.339-.9-.719-2.16-1.259-3.24-1.798-1.44-.72-4.68-5.397-2.16-6.476 1.8-.9 3.24 1.978 4.5 2.698.54.18 1.08.36 1.44 0 .18-.18.18-.36.18-.54.18-2.878-1.26-5.756-2.88-8.095-1.62-2.518-3.42-4.857-3.78-7.915 0-.539-.18-1.079 0-1.439.18-.54.72-.899 1.26-.719.72.18.36 1.619 1.08 2.158.72.54 1.8.36 2.52 0 1.08-.719 1.26-2.338.9-3.598-.36-1.259-1.26-2.338-1.98-3.417-2.34-3.418-3.96-7.196-4.86-11.333-.72-3.958-.18-7.735-.18-11.693 0-1.079.18-6.296-1.62-6.296-1.61.18-1.79 4.677-1.79 5.756-.54 8.815-1.26 18.349-7.02 25.185-.72.899-1.62 1.798-1.8 2.878-.18 1.079.54 2.338 1.44 2.698 1.08.54 2.34.36 3.06-.54.54-.539 1.26-1.978 2.16-1.079.36.36.54.9.54 1.439.18 3.598-1.44 7.196-3.42 10.254s-4.14 6.116-5.4 9.534c-.36 1.079-.54 2.338-.36 3.418.36 1.079 1.26 2.158 2.34 2.158 1.98.18 2.16-1.619 3.6-2.338.72-.36 1.62-.36 2.16.18.36.36.54.899.36 1.439-.18 2.698-2.52 4.677-4.5 6.656-2.34 2.158-3.96 5.037-5.22 7.915a7.213 7.213 0 00-.54 2.698c0 .9.36 1.979 1.26 2.339 1.26.719 2.88.359 3.96-.72 1.08-.899 1.62-2.338 2.34-3.598.36-.719.9-1.439 1.8-1.619 3.24-.719.9 4.677.18 5.577-3.78 5.037-9.18 9.894-8.82 16.19 0 1.079.36 2.158 1.26 2.518 1.26.54 2.7-.719 3.6-1.979.54-.719 4.14-8.274 4.68-4.317.54 3.778-2.34 5.397-4.32 7.915-2.34 2.878-4.14 6.116-5.04 9.534-.36 1.439-.54 3.598.9 4.138 2.16.899 3.06-2.159 4.32-3.059 1.44-1.079 3.42-.539 3.78 1.26.18 1.079-.18 2.338-.72 3.238-2.34 4.137-7.2 6.656-8.82 11.153-.36 1.259-.54 2.878.54 3.597 1.8 1.26 3.42-.899 4.5-1.978.36-.36.9-.72 1.26-.72.54 0 1.08.54 1.08 1.079.18.54 0 1.08-.18 1.619-1.44 4.678-5.4 6.656-8.28 10.254-1.26 1.619-1.97 3.418-2.33 5.397-.18.899-.18 1.979.18 2.878.35.899 1.25 1.619 2.15 1.619 1.26 0 2.16-1.259 2.52-2.339.54-1.079.72-2.518 1.62-3.417 1.08-1.08 3.42-.9 3.6.899.18 1.439-2.16 3.238-2.88 4.317-1.62 2.519-3.06 5.037-4.68 7.556h-18.7l-48.39 49.109c-.9-1.08-1.8-2.159-2.7-3.058-3.24-3.238-5.58-7.376-6.66-11.693 1.44 1.799 3.24 3.598 5.04 4.857 1.44 1.079 2.88.899 3.42-.899.18-.72.18-1.619.18-2.339-.18-1.619-.54-3.418-1.08-5.037-1.26-2.698-3.42-4.677-5.4-6.836-1.98-2.158-3.42-5.216-2.88-7.915.18-.539.36-.899.72-1.079.72-.36 1.44.18 1.8.899.9 1.44.9 2.339 2.7 1.799 1.26-.359 2.16-1.978 1.98-3.238 0-1.079-.54-1.978-1.08-2.878-2.7-4.677-8.28-8.994-7.38-15.11 0-.36.18-.9.54-1.26.9-.719 1.98.18 2.7 1.08.54.899 1.44 1.978 2.52 1.619.9-.36.9-1.799.72-2.699-1.08-4.677-4.14-8.454-5.94-12.951-.54-1.08-.9-2.339-.72-3.598 0-.18 0-.54.18-.72.36-.36 1.08-.36 1.44 0 .9.9 1.08 2.519 2.7 2.699 1.44.179 2.7-1.619 2.52-3.059-.18-1.439-1.08-2.878-1.98-4.137-5.94-9.534-5.94-21.946-9.53-32.38-.18-.36-.36-.899-.72-1.079-.72-.54-1.8 0-2.16.719-.36.72-.18 1.619-.18 2.519.9 7.195-.54 14.391-1.8 21.407-.54 2.698-1.08 5.396-1.98 7.915-1.26 3.238-3.06 6.296-4.32 9.714-.72 1.618-.9 4.137.9 4.677 2.16.719 3.6-2.699 5.76-2.699 3.6.18.72 5.037 0 6.476-1.62 3.238-4.32 6.296-4.32 10.074 0 .54 0 1.079.36 1.439 1.98 3.058 4.68-1.799 5.58-3.058.36-.54 1.26-.899 1.8-.54.54.36.54 1.08.54 1.799-.72 7.555-8.64 12.232-10.62 19.428-.18.899-.36 1.979 0 2.698.9 1.979 3.96 1.439 5.58 0 1.08-1.079 1.8-2.518 2.88-3.597 1.08-1.08 3.24-1.619 2.7.899-.18.899-.72 1.619-1.44 2.159-1.62 1.799-3.42 3.777-5.22 5.396-.9.9-1.98 1.799-2.7 2.699-.9 1.259-1.44 2.878-1.98 4.317-.36 1.259-.72 3.058.36 3.957.72.54 1.62.54 2.52.18.9-.359 1.44-1.079 1.98-1.619.9-1.079 1.8-2.338 2.52-3.597.36-.36 1.08 0 1.26.539.18.54.18 1.08.18 1.439-.72 4.138-2.7 6.116-5.58 8.815-3.24 2.878-7.01 5.936-7.37 10.253 0 .72 0 1.619.36 2.339H903.036v-.54c0-2.518-1.44-4.677-2.879-6.835-1.619-2.159-2.698-4.498-4.137-6.836-1.619-2.698-3.418-4.857-3.778-8.095 2.878-2.698 5.757 6.116 9.534 4.857 2.699-.9 1.439-4.857-.18-7.196-3.597-5.396-5.936-11.333-7.375-17.629-.719-3.058-1.259-6.296-1.619-9.534-.18-1.259 0-8.095-2.878-6.296-.9.54-1.079 1.619-1.439 2.699-1.259 5.216-2.339 10.613-3.778 15.83-1.079 4.137-1.619 9.894-4.317 13.311-1.439 1.979-3.238 3.418-3.058 6.117 0 .179 0 .359.18.539.18.36.539.36.719.54 3.058 1.079 5.217-1.259 7.196-3.238.18-.18.539-.54.899-.72.36-.18.72-.18 1.079.18.72.72 0 2.699 0 3.598-.359 2.698-1.619 5.217-3.238 7.375-2.518 3.598-5.936 6.476-8.095 10.434-.359.719-.719 1.619-.719 2.518.18 1.799 1.799 2.699 3.418 2.699 2.158.18 3.238-1.44 4.137-3.238.54-1.26 1.08-2.519 2.159-3.058.36-.18.719-.18.899 0 0 .179 0 .179.18.359.18 2.159-.18 4.318-1.079 6.476l-18.888 6.656c-1.08-5.217-5.397-8.814-8.635-12.772-1.439-1.979-2.878-3.957-3.418-6.296-.18-.54-.899-2.698-.539-3.238.899-1.259 2.158.36 2.518 1.079.72 1.08 1.439 2.339 2.159 3.418a6.196 6.196 0 002.158 2.159c.9.54 1.979.72 2.878.36 1.26-.54 1.799-1.979 1.979-3.418.18-2.159-.719-4.138-1.979-5.936-1.259-1.799-2.698-3.238-4.137-4.857a29.415 29.415 0 01-3.058-3.598c-1.079-1.259-5.397-9.534-2.159-10.614.72-.18 1.619.18 2.339.72.54.54 1.079 1.259 1.619 1.979 1.259 1.439 3.238 2.338 5.217 2.158.539 0 1.079-.18 1.439-.359.719-.54.899-1.26.899-2.159 0-2.518-1.439-4.677-2.878-6.836-1.619-2.158-2.698-4.497-4.137-6.836-1.619-2.698-3.418-4.856-3.778-8.094 2.878-2.699 5.756 6.116 9.534 4.857 2.698-.9 1.439-4.857-.18-7.196-3.598-5.397-5.936-11.333-7.375-17.629-.72-3.058-1.26-6.296-1.619-9.534-.18-1.259 0-8.095-2.878-6.296-.9.54-1.08 1.619-1.44 2.698-1.259 5.217-2.338 10.614-3.777 15.83-1.08 4.138-1.619 9.894-4.318 13.312-1.439 1.979-3.238 3.418-3.058 6.116 0 .18 0 .36.18.54.18.36.54.36.72.54 3.058 1.079 5.217-1.26 7.195-3.238.18-.18.54-.54.9-.72.36-.18.719-.18 1.079.18.72.719 0 2.698 0 3.598-.36 2.698-1.619 5.216-3.238 7.375-2.518 3.598-5.936 6.476-8.095 10.434-.36.719-.719 1.619-.719 2.518.179 1.799 1.798 2.698 3.417 2.698 2.159.18 3.238-1.439 4.138-3.238.54-1.259 1.079-2.518 2.159-3.058.359-.18.719-.18.899 0 0 .18 0 .18.18.36.18 2.518-.36 5.037-1.439 7.375-1.08 2.339-2.878 3.958-4.857 5.757a11.776 11.776 0 00-2.699 3.238c-.539.899-.899 1.979-.719 2.878.18 1.079.719 1.979 1.619 2.338 1.259.54 2.878-.179 3.778-1.259.539-.539 3.238-5.037 4.317-3.238.36.54-.36 3.058-.54 3.778a52.161 52.161 0 01-2.159 7.016c-1.798 4.677-4.677 8.814-8.094 12.412-1.439 1.439-3.238 3.238-3.059 5.396.18 2.879 3.778 4.138 6.117 3.418 3.418-.899 3.238-4.497 5.756-6.296.18-.18.36-.18.54-.18.539 0 .539.72.539 1.26-.359 2.158-1.079 4.497-1.799 6.476l-30.58 10.973c-.72-.72-1.439-1.619-1.979-2.339-1.079-1.259-5.397-9.534-2.159-10.613.72-.18 1.619.18 2.339.719.539.54 1.079 1.26 1.619 1.979 1.259 1.439 3.238 2.339 5.216 2.159.54 0 1.08-.18 1.44-.36.719-.54.899-1.259.899-2.159 0-2.518-1.439-4.677-2.878-6.835-1.619-2.159-2.698-4.498-4.138-6.836-1.619-2.699-3.417-4.857-3.777-8.095 2.878-2.698 5.756 6.116 9.534 4.857 2.698-.9 1.439-4.857-.18-7.196-3.598-5.396-5.936-11.333-7.375-17.629-.72-3.058-1.26-6.296-1.619-9.534-.18-1.259 0-8.095-2.879-6.296-.899.54-1.079 1.619-1.439 2.699-1.259 5.216-2.338 10.613-3.777 15.83-1.08 4.137-1.619 9.894-4.318 13.311-1.439 1.979-3.238 3.418-3.058 6.117 0 .179 0 .359.18.539.18.36.54.36.72.54 3.058 1.079 5.216-1.259 7.195-3.238.18-.18.54-.54.9-.72.359-.18.719-.18 1.079.18.719.72 0 2.699 0 3.598-.36 2.698-1.619 5.217-3.238 7.375-2.518 3.598-5.936 6.476-8.095 10.434-.36.719-.72 1.619-.72 2.518.18 1.799 1.799 2.699 3.418 2.699 2.159.179 3.238-1.44 4.138-3.238.539-1.26 1.079-2.519 2.158-3.059.36-.179.72-.179.9 0 0 .18 0 .18.18.36.18 2.519-.36 5.037-1.439 7.376-1.08 2.338-2.879 3.957-4.857 5.756a11.776 11.776 0 00-2.699 3.238c-.539.9-.899 1.979-.719 2.878l-19.248 6.836h-69.976l-34.179-15.83c-1.259-1.619-2.698-3.238-3.958-4.677a29.428 29.428 0 01-3.058-3.598c-1.079-1.259-5.396-9.534-2.158-10.613.719-.18 1.619.18 2.338.719.54.54 1.08 1.259 1.619 1.979 1.259 1.439 3.238 2.339 5.217 2.159.54 0 1.079-.18 1.439-.36.72-.54.899-1.259.899-2.159 0-2.518-1.439-4.677-2.878-6.835-1.619-2.159-2.698-4.498-4.137-6.836-1.619-2.699-3.418-4.857-3.778-8.095 2.878-2.698 5.757 6.116 9.534 4.857 2.699-.9 1.439-4.857-.18-7.196-3.597-5.396-5.936-11.333-7.375-17.629-.72-3.058-1.259-6.296-1.619-9.534-.18-1.259 0-8.095-2.878-6.296-.9.54-1.08 1.619-1.439 2.698-1.26 5.217-2.339 10.614-3.778 15.831-1.079 4.137-1.619 9.893-4.317 13.311-1.439 1.979-3.238 3.418-3.058 6.117 0 .179 0 .359.18.539.179.36.539.36.719.54 3.058 1.079 5.217-1.259 7.196-3.238.179-.18.539-.54.899-.72.36-.18.72-.18 1.079.18.72.72 0 2.699 0 3.598-.359 2.698-1.619 5.217-3.238 7.375-2.518 3.598-5.936 6.476-8.095 10.434-.359.719-.719 1.619-.719 2.518.18 1.799 1.799 2.699 3.418 2.699 2.158.179 3.238-1.44 4.137-3.238.54-1.26.9-2.519 2.159-3.059.36-.179.719-.179.899 0 0 .18 0 .18.18.36.18 2.519-.36 5.037-1.439 7.376-.36.899-.899 1.439-1.439 2.158l-11.153-5.216c0-1.979-.72-3.958-1.979-5.577-1.259-1.799-2.698-3.238-4.137-4.857a29.179 29.179 0 01-3.058-3.598c-1.08-1.259-5.397-9.534-2.159-10.613.719-.18 1.619.18 2.339.719.539.54 1.079 1.26 1.619 1.979 1.259 1.439 3.238 2.339 5.216 2.159.54 0 1.08-.18 1.439-.36.72-.54.9-1.259.9-2.158 0-2.519-1.439-4.678-2.878-6.836-1.619-2.159-2.699-4.497-4.138-6.836-1.619-2.698-3.418-4.857-3.777-8.095 2.878-2.698 5.756 6.116 9.534 4.857 2.698-.899 1.439-4.857-.18-7.195-3.598-5.397-5.937-11.333-7.376-17.629-.719-3.059-1.259-6.296-1.619-9.534-.18-1.26 0-8.095-2.878-6.297-.899.54-1.079 1.62-1.439 2.699-1.259 5.217-2.339 10.613-3.778 15.83-1.079 4.137-1.619 9.894-4.317 13.312-1.439 1.978-3.238 3.417-3.058 6.116 0 .18 0 .359.18.539.18.36.539.36.719.54 3.058 1.079 5.217-1.259 7.196-3.238.18-.18.54-.54.899-.719.36-.18.72-.18 1.08.179.719.72 0 2.699 0 3.598-.36 2.698-1.619 5.217-3.238 7.376-2.519 3.597-5.937 6.476-8.095 10.433-.36.72-.72 1.619-.72 2.518.18 1.799 1.799 2.699 3.418 2.699 2.159.18 3.238-1.439 4.137-3.238.54-1.259 1.08-2.519 2.159-3.058.36-.18.72-.18.9 0 0 .18 0 .18.179.359.18 2.519-.359 5.037-1.439 7.376-1.079 2.338-2.698 3.778-4.677 5.576l-17.629-8.095c-.539-2.698-2.158-5.216-3.777-7.195-3.238-3.778-7.196-8.095-6.296-13.132 3.417.36 4.317 6.116 7.735 5.936 2.518 0 3.418-3.417 2.878-5.756-1.079-5.217-5.397-8.814-8.635-12.772-1.439-1.979-2.878-3.957-3.417-6.296-.18-.54-.9-2.698-.54-3.238.899-1.259 2.158.36 2.518 1.079.72 1.08 1.439 2.339 2.159 3.418a6.2 6.2 0 002.159 2.159c.899.539 1.978.719 2.878.36 1.259-.54 1.799-1.979 1.978-3.418.18-2.159-.719-4.138-1.978-5.937-1.259-1.798-2.699-3.238-4.138-4.857a29.418 29.418 0 01-3.058-3.597c-1.079-1.26-5.396-9.534-2.158-10.614.719-.179 1.619.18 2.338.72.54.54 1.08 1.259 1.619 1.979 1.259 1.439 3.238 2.338 5.217 2.158.54 0 1.079-.18 1.439-.359.72-.54.899-1.26.899-2.159 0-2.519-1.439-4.677-2.878-6.836-1.619-2.158-2.698-4.497-4.137-6.836-1.619-2.698-3.418-4.857-3.778-8.095 2.878-2.698 5.757 6.117 9.534 4.857 2.699-.899 1.439-4.856-.18-7.195-3.597-5.397-5.936-11.333-7.375-17.629-.72-3.058-1.259-6.296-1.619-9.534-.18-1.259 0-8.095-2.878-6.296-.9.54-1.08 1.619-1.439 2.698-1.26 5.217-2.339 10.614-3.778 15.83-1.079 4.138-1.619 9.894-4.317 13.312-1.439 1.979-3.238 3.418-3.058 6.116 0 .18 0 .36.179.54.18.36.54.36.72.539 3.058 1.08 5.217-1.259 7.196-3.238.179-.179.539-.539.899-.719.36-.18.72-.18 1.079.18.72.719 0 2.698 0 3.598-.359 2.698-1.619 5.216-3.238 7.375-2.518 3.598-5.936 6.476-8.095 10.433-.359.72-.719 1.62-.719 2.519.18 1.799 1.799 2.698 3.418 2.698 2.158.18 3.238-1.439 4.137-3.238.54-1.259 1.079-2.518 2.159-3.058.36-.18.719-.18.899 0 0 .18 0 .18.18.36.18 2.518-.36 5.037-1.439 7.375-1.079 2.339-2.878 3.958-4.857 5.757a11.758 11.758 0 00-2.698 3.238c-.54.899-.9 1.978-.72 2.878.18 1.079.72 1.979 1.619 2.338 1.259.54 2.878-.179 3.778-1.259.539-.539 3.238-5.037 4.317-3.238.36.54-.36 3.058-.54 3.778a52.242 52.242 0 01-2.158 7.015c-1.799 4.678-4.677 8.815-8.095 12.413-1.439 1.439-3.238 3.238-3.058 5.396.18 2.879 3.777 4.138 6.116 3.418 3.418-.899 3.238-4.497 5.756-6.296.18-.18.36-.18.54-.18.54 0 .54.72.54 1.259-.54 3.059-1.619 6.117-2.879 8.995l-29.681-13.672c1.079-.719 1.439-1.978 1.619-3.238.18-2.158-.72-4.137-1.979-5.936-1.259-1.799-2.698-3.238-4.137-4.857a29.179 29.179 0 01-3.058-3.598c-1.08-1.259-5.397-9.534-2.159-10.613.72-.18 1.619.18 2.339.72.539.539 1.079 1.259 1.619 1.978 1.259 1.439 3.238 2.339 5.216 2.159.54 0 1.08-.18 1.439-.36.72-.539.9-1.259.9-2.158 0-2.519-1.439-4.677-2.878-6.836-1.619-2.159-2.699-4.497-4.138-6.836-1.619-2.698-3.418-4.857-3.777-8.095 2.878-2.698 5.756 6.116 9.534 4.857 2.698-.899 1.439-4.857-.18-7.195-3.598-5.397-5.937-11.333-7.376-17.629-.719-3.058-1.259-6.296-1.619-9.534-.179-1.26 0-8.095-2.878-6.296-.899.539-1.079 1.619-1.439 2.698-1.259 5.217-2.338 10.613-3.778 15.83-1.079 4.137-1.618 9.894-4.317 13.312-1.439 1.978-3.238 3.418-3.058 6.116 0 .18 0 .36.18.54.18.359.54.359.72.539 3.058 1.08 5.216-1.259 7.195-3.238.18-.18.54-.539.899-.719.36-.18.72-.18 1.08.18.719.719 0 2.698 0 3.597-.36 2.699-1.619 5.217-3.238 7.376-2.519 3.597-5.936 6.476-8.095 10.433-.36.72-.72 1.619-.72 2.519.18 1.799 1.799 2.698 3.418 2.698 2.159.18 3.238-1.439 4.138-3.238.539-1.259 1.079-2.518 2.158-3.058.36-.18.72-.18.9 0 0 .18 0 .18.18.36.179 2.518-.36 5.036-1.44 7.375-1.079 2.339-2.878 3.958-4.857 5.756-.899.9-1.798 1.799-2.518 2.879l-28.602-13.132c-.36-.54-.9-.9-1.259-1.439a29.327 29.327 0 01-3.058-3.598c-1.08-1.259-5.397-9.534-2.159-10.613.72-.18 1.619.179 2.339.719.539.54 1.079 1.259 1.619 1.979 1.259 1.439 3.238 2.338 5.216 2.159.54 0 1.08-.18 1.439-.36.72-.54.9-1.259.9-2.159 0-2.518-1.439-4.677-2.878-6.836-1.619-2.158-2.699-4.497-4.138-6.835-1.619-2.699-3.418-4.857-3.777-8.095 2.878-2.699 5.756 6.116 9.534 4.857 2.698-.9 1.439-4.857-.18-7.196-3.598-5.396-5.937-11.333-7.376-17.629-.719-3.058-1.259-6.296-1.619-9.534-.18-1.259 0-8.095-2.878-6.296-.899.54-1.079 1.619-1.439 2.698-1.259 5.217-2.339 10.614-3.778 15.831-1.079 4.137-1.619 9.893-4.317 13.311-1.439 1.979-3.238 3.418-3.058 6.116 0 .18 0 .36.18.54.18.36.54.36.719.54 3.059 1.079 5.217-1.259 7.196-3.238.18-.18.54-.54.899-.72.36-.18.72-.18 1.08.18.719.72 0 2.698 0 3.598-.36 2.698-1.619 5.217-3.238 7.375-2.519 3.598-5.937 6.476-8.095 10.434-.36.719-.72 1.619-.72 2.518 0 .36.18.72.36.9l-7.195-3.238c-1.08-1.619-2.519-3.059-3.958-4.498a29.33 29.33 0 01-3.058-3.597c-1.079-1.26-5.397-9.534-2.159-10.614.72-.18 1.619.18 2.339.72.539.539 1.079 1.259 1.619 1.979 1.259 1.439 3.238 2.338 5.217 2.158.539 0 1.079-.18 1.439-.36.719-.539.899-1.259.899-2.158 0-2.519-1.439-4.677-2.878-6.836-1.619-2.159-2.698-4.497-4.138-6.836-1.619-2.698-3.417-4.857-3.777-8.095 2.878-2.698 5.756 6.117 9.534 4.857 2.698-.899 1.439-4.857-.18-7.195-3.598-5.397-5.936-11.333-7.375-17.629-.72-3.058-1.26-6.296-1.619-9.534-.18-1.259 0-8.095-2.879-6.296-.899.539-1.079 1.619-1.439 2.698-1.259 5.217-2.338 10.613-3.777 15.83-1.08 4.138-1.619 9.894-4.318 13.312-1.439 1.979-3.238 3.418-3.058 6.116 0 .18 0 .36.18.54.18.36.54.359.72.539 3.058 1.08 5.216-1.259 7.195-3.238.18-.179.54-.539.9-.719.359-.18.719-.18 1.079.18.719.719 0 2.698 0 3.597-.36 2.699-1.619 5.217-3.238 7.376-2.518 3.598-5.936 6.476-8.095 10.433-.36.72-.72 1.619-.72 2.519.18 1.799 1.799 2.698 3.418 2.698 2.159.18 3.238-1.439 4.138-3.238.539-1.259 1.079-2.518 2.158-3.058.36-.18.72-.18.9 0 0 .18 0 .18.18.36.18 2.518-.36 5.037-1.439 7.375-.36.72-.9 1.439-1.26 2.159l-33.818-15.65c-1.44-1.619-2.879-3.238-4.138-4.857-1.439-1.979-2.878-3.958-3.418-6.296-.18-.54-.899-2.699-.539-3.238.899-1.26 2.158.359 2.518 1.079.72 1.079 1.439 2.338 2.159 3.418a6.205 6.205 0 002.158 2.159c.9.539 1.979.719 2.879.359 1.259-.539 1.798-1.979 1.978-3.418.18-2.158-.719-4.137-1.978-5.936-1.26-1.799-2.699-3.238-4.138-4.857a29.266 29.266 0 01-3.058-3.598c-1.079-1.259-5.397-9.534-2.159-10.613.72-.18 1.619.18 2.339.72.54.539 1.079 1.259 1.619 1.978 1.259 1.439 3.238 2.339 5.217 2.159.539 0 1.079-.18 1.439-.36.719-.539.899-1.259.899-2.158 0-2.519-1.439-4.678-2.878-6.836-1.619-2.159-2.698-4.497-4.137-6.836-1.619-2.698-3.418-4.857-3.778-8.095 2.878-2.698 5.756 6.116 9.534 4.857 2.698-.899 1.439-4.857-.18-7.195-3.598-5.397-5.936-11.333-7.375-17.629-.72-3.058-1.259-6.296-1.619-9.534-.18-1.26 0-8.095-2.879-6.296-.899.539-1.079 1.618-1.439 2.698-1.259 5.217-2.338 10.613-3.777 15.83-1.08 4.137-1.619 9.894-4.318 13.312-1.439 1.978-3.238 3.417-3.058 6.116 0 .18 0 .36.18.539.18.36.54.36.72.54 3.058 1.079 5.217-1.259 7.195-3.238.18-.18.54-.54.9-.719.36-.18.719-.18 1.079.179.72.72 0 2.699 0 3.598-.36 2.699-1.619 5.217-3.238 7.376-2.518 3.597-5.936 6.476-8.095 10.433-.36.72-.719 1.619-.719 2.519.18 1.798 1.798 2.698 3.417 2.698 2.159.18 3.238-1.439 4.138-3.238.54-1.259 1.079-2.519 2.159-3.058.359-.18.719-.18.899 0 0 .18 0 .18.18.36.18 2.518-.36 5.036-1.439 7.375-1.08 2.339-2.878 3.957-4.857 5.756a11.79 11.79 0 00-2.699 3.238c-.539.9-.899 1.979-.719 2.879.18.899.719 1.978 1.619 2.338 1.259.54 2.878-.18 3.778-1.259.539-.54 3.238-5.037 4.317-3.238.36.54-.36 3.058-.54 3.778-.539 2.158-1.079 4.497-1.979 6.476l-31.12-14.392c0-2.518-1.439-4.677-2.878-6.835-1.619-2.159-2.699-4.497-4.138-6.836-1.619-2.698-3.418-4.857-3.777-8.095 2.878-2.698 5.756 6.116 9.534 4.857 2.698-.899 1.439-4.857-.18-7.195-3.598-5.397-5.936-11.333-7.376-17.629-.719-3.059-1.259-6.296-1.619-9.534-.179-1.26 0-8.095-2.878-6.297-.899.54-1.079 1.619-1.439 2.699-1.259 5.217-2.338 10.613-3.778 15.83-1.079 4.137-1.619 9.894-4.317 13.312-1.439 1.978-3.238 3.417-3.058 6.116 0 .18 0 .359.18.539.18.36.54.36.72.54 3.058 1.079 5.216-1.259 7.195-3.238.18-.18.54-.54.899-.719.36-.18.72-.18 1.08.179.719.72 0 2.699 0 3.598-.36 2.698-1.619 5.217-3.238 7.376-.36.539-.9 1.079-1.259 1.619l-15.291-7.016c-.719-.9-1.619-1.799-2.518-2.698a29.327 29.327 0 01-3.058-3.598c-1.08-1.259-5.397-9.534-2.159-10.614.72-.179 1.619.18 2.339.72.539.54 1.079 1.259 1.619 1.979 1.259 1.439 3.237 2.338 5.216 2.158.54 0 1.08-.179 1.439-.359.72-.54.9-1.26.9-2.159 0-2.518-1.439-4.677-2.878-6.836-1.619-2.158-2.699-4.497-4.138-6.835-1.619-2.699-3.418-4.857-3.777-8.095 2.878-2.699 5.756 6.116 9.534 4.857 2.698-.9 1.439-4.857-.18-7.196-3.598-5.397-5.937-11.333-7.376-17.629-.719-3.058-1.259-6.296-1.619-9.534-.18-1.259 0-8.095-2.878-6.296-.899.54-1.079 1.619-1.439 2.698-1.259 5.217-2.339 10.614-3.778 15.83-1.079 4.138-1.619 9.894-4.317 13.312-1.439 1.979-3.238 3.418-3.058 6.116 0 .18 0 .36.18.54.18.36.54.36.719.54 3.059 1.079 5.217-1.26 7.196-3.238.18-.36.54-.54.899-.72.36-.18.72-.18 1.08.18.719.72 0 2.698 0 3.598-.36 2.698-1.619 5.216-3.238 7.375-2.519 3.598-5.937 6.476-8.095 10.434-.36.719-.72 1.619-.72 2.518.18 1.799 1.799 2.698 3.418 2.698 2.159.18 3.238-1.439 4.137-3.238.54-1.259 1.08-2.518 2.159-3.058.36-.18.72-.18.9 0 0 .18 0 .18.179.36.18 2.518-.359 5.037-1.439 7.375-.18.54-.539.9-.719 1.26l-21.407-9.894c-.18-3.238-2.158-6.476-4.137-8.815-3.238-3.777-7.196-8.095-6.296-13.131 3.418.359 4.317 6.116 7.735 5.936 2.518 0 3.418-3.418 2.878-5.757-1.079-5.216-5.397-8.814-8.635-12.772-1.439-1.978-2.878-3.957-3.417-6.296-.18-.539-.9-2.698-.54-3.238.899-1.259 2.159.36 2.518 1.08.72 1.079 1.44 2.338 2.159 3.418a6.196 6.196 0 002.159 2.158c.899.54 1.978.72 2.878.36 1.259-.54 1.799-1.979 1.979-3.418.18-2.159-.72-4.137-1.979-5.936-1.259-1.799-2.698-3.238-4.138-4.857a29.428 29.428 0 01-3.058-3.598c-1.079-1.259-5.396-9.534-2.158-10.613.719-.18 1.619.18 2.338.719.54.54 1.08 1.259 1.619 1.979 1.259 1.439 3.238 2.339 5.217 2.159.54 0 1.079-.18 1.439-.36.72-.54.9-1.259.9-2.159 0-2.518-1.44-4.677-2.879-6.835-1.619-2.159-2.698-4.498-4.137-6.836-1.619-2.698-3.418-4.857-3.778-8.095 2.879-2.698 5.757 6.116 9.534 4.857 2.699-.9 1.439-4.857-.18-7.196-3.597-5.396-5.936-11.333-7.375-17.629-.72-3.058-1.259-6.296-1.619-9.534-.18-1.259 0-8.095-2.878-6.296-.9.54-1.079 1.619-1.439 2.699-1.259 5.216-2.339 10.613-3.778 15.83-1.079 4.137-1.619 9.893-4.317 13.311-1.439 1.979-3.238 3.418-3.058 6.117 0 .179 0 .359.18.539.18.36.539.36.719.54 3.058 1.079 5.217-1.259 7.196-3.238.18-.18.539-.54.899-.72.36-.18.72-.18 1.079.18.72.72 0 2.699 0 3.598-.359 2.698-1.619 5.217-3.238 7.375-2.518 3.598-5.936 6.476-8.094 10.434-.36.719-.72 1.619-.72 2.518.18 1.799 1.799 2.699 3.418 2.699 2.158.179 3.238-1.439 4.137-3.238.54-1.26 1.08-2.519 2.159-3.058.36-.18.719-.18.899 0 0 .179 0 .179.18.359.18 2.519-.36 5.037-1.439 7.376-1.079 2.338-2.878 3.957-4.857 5.756a11.787 11.787 0 00-2.698 3.238c-.54.899-.9 1.979-.72 2.878.18 1.08.72 1.979 1.619 2.339 1.259.539 2.878-.18 3.778-1.259.54-.54 3.238-5.037 4.317-3.238.36.539-.36 3.058-.539 3.777a52.407 52.407 0 01-2.159 7.016c-1.799 4.677-4.677 8.814-8.095 12.412-1.439 1.439-3.238 3.238-3.058 5.397.18 2.878 3.778 4.137 6.116 3.418 3.418-.9 3.238-4.498 5.756-6.296.18-.18.36-.18.54-.18.54 0 .54.719.54 1.259-.54 3.598-1.799 7.015-3.598 10.253l-22.846-10.613c-.899-1.079-1.978-2.159-3.058-3.418a29.353 29.353 0 01-3.058-3.598c-1.079-1.259-5.396-9.534-2.159-10.613.72-.18 1.619.18 2.339.72.54.539 1.079 1.259 1.619 1.978 1.259 1.44 3.238 2.339 5.217 2.159.539 0 1.079-.18 1.439-.36.719-.539.899-1.259.899-2.158 0-2.519-1.439-4.677-2.878-6.836-1.619-2.159-2.698-4.497-4.137-6.836-1.619-2.698-3.418-4.857-3.778-8.095 2.878-2.698 5.756 6.116 9.534 4.857 2.698-.899 1.439-4.857-.18-7.195-3.598-5.397-5.936-11.333-7.375-17.629-.72-3.058-1.259-6.296-1.619-9.534-.18-1.26 0-8.095-2.878-6.296-.9.539-1.08 1.619-1.439 2.698-1.26 5.217-2.339 10.613-3.778 15.83-1.079 4.137-1.619 9.894-4.317 13.312-1.44 1.978-3.238 3.418-3.059 6.116 0 .18 0 .36.18.54.18.359.54.359.72.539 3.058 1.08 5.217-1.259 7.195-3.238.18-.18.54-.539.9-.719.36-.18.719-.18 1.079.18.72.719 0 2.698 0 3.597-.36 2.699-1.619 5.217-3.238 7.376-2.518 3.597-5.936 6.476-8.095 10.433-.36.72-.719 1.619-.719 2.519.18 1.798 1.799 2.698 3.418 2.698 2.158.18 3.238-1.439 4.137-3.238.54-1.259 1.079-2.518 2.159-3.058.359-.18.719-.18.899 0 0 .18 0 .18.18.36.18 2.518-.36 5.037-1.439 7.375-.18.54-.54 1.079-.9 1.619l-26.263-12.052c-1.079-1.26-2.339-2.519-3.238-3.958-1.439-1.979-2.878-3.957-3.418-6.296-.18-.54-.899-2.698-.54-3.238.9-1.259 2.159.36 2.519 1.079.719 1.08 1.439 2.339 2.158 3.418.54.9 1.26 1.619 2.159 2.159.9.539 1.979.719 2.878.36 1.259-.54 1.799-1.979 1.979-3.418.18-2.159-.72-4.138-1.979-5.937-1.259-1.798-2.698-3.238-4.137-4.857a29.33 29.33 0 01-3.058-3.597c-1.08-1.259-5.397-9.534-2.159-10.614.72-.18 1.619.18 2.339.72.539.54 1.079 1.259 1.619 1.979 1.259 1.439 3.238 2.338 5.216 2.158.54 0 1.08-.18 1.439-.359.72-.54.9-1.26.9-2.159 0-2.518-1.439-4.677-2.878-6.836-1.619-2.158-2.699-4.497-4.138-6.836-1.619-2.698-3.418-4.856-3.777-8.094 2.878-2.699 5.756 6.116 9.534 4.856 2.698-.899 1.439-4.856-.18-7.195-3.598-5.397-5.936-11.333-7.376-17.629-.719-3.058-1.259-6.296-1.619-9.534-.179-1.259 0-8.095-2.878-6.296-.899.54-1.079 1.619-1.439 2.698-1.259 5.217-2.338 10.614-3.777 15.83-1.08 4.138-1.619 9.894-4.318 13.312-1.439 1.979-3.238 3.418-3.058 6.116 0 .18 0 .36.18.54.18.36.54.36.72.539 3.058 1.08 5.216-1.259 7.195-3.237.18-.18.54-.54.899-.72.36-.18.72-.18 1.08.18.719.719 0 2.698 0 3.598-.36 2.698-1.619 5.216-3.238 7.375-2.519 3.598-5.936 6.476-8.095 10.433-.36.72-.72 1.619-.72 2.519.18 1.799 1.799 2.698 3.418 2.698 2.159.18 3.238-1.439 4.138-3.238.539-1.259.899-2.518 2.158-3.058.36-.18.72-.18.9 0 0 .18 0 .18.18.36.179 2.518-.36 5.037-1.439 7.375-1.08 2.339-2.879 3.958-4.857 5.757a11.762 11.762 0 00-2.699 3.238c-.539.899-.899 1.978-.719 2.878.18 1.079.719 1.979 1.619 2.338 1.259.54 2.878-.179 3.777-1.259.54-.539 3.238-5.037 4.318-3.238.359.54-.36 3.058-.54 3.778-.36 1.979-1.079 4.137-1.799 5.936l-24.465-11.333c-1.079-1.439-2.338-2.698-3.418-3.957a29.503 29.503 0 01-3.058-3.598c-1.079-1.259-5.396-9.534-2.158-10.613.719-.18 1.619.18 2.338.719.54.54 1.08 1.259 1.619 1.979 1.259 1.439 3.238 2.338 5.217 2.159.54 0 1.079-.18 1.439-.36.72-.54.9-1.259.9-2.159 0-2.518-1.44-4.677-2.879-6.836-1.619-2.158-2.698-4.497-4.137-6.835-1.619-2.699-3.418-4.857-3.778-8.095 2.879-2.699 5.757 6.116 9.534 4.857 2.699-.9 1.439-4.857-.18-7.196-3.597-5.396-5.936-11.333-7.375-17.629-.719-3.058-1.259-6.296-1.619-9.534-.18-1.259 0-8.095-2.878-6.296-.9.54-1.079 1.619-1.439 2.698-1.259 5.217-2.339 10.614-3.778 15.831-1.079 4.137-1.619 9.893-4.317 13.311-1.439 1.979-3.238 3.418-3.058 6.116 0 .18 0 .36.18.54.18.36.539.36.719.54 3.058 1.079 5.217-1.259 7.196-3.238.18-.18.539-.54.899-.72.36-.18.72-.18 1.079.18.72.72 0 2.698 0 3.598-.359 2.698-1.619 5.217-3.238 7.375-2.518 3.598-5.936 6.476-8.094 10.434-.36.719-.72 1.619-.72 2.518.18 1.799 1.799 2.698 3.418 2.698 2.158.18 3.238-1.439 4.137-3.238.54-1.259 1.08-2.518 2.159-3.058.36-.18.719-.18.899 0 0 .18 0 .18.18.36.18 2.519-.36 5.037-1.439 7.376-.36.719-.719 1.259-1.079 1.798l-28.243-13.131c-.179-.18-.359-.54-.359-.72-1.619-2.698-3.418-4.857-3.778-8.095 2.878-2.698 5.756 6.116 9.534 4.857 2.698-.899 1.439-4.857-.18-7.195-3.598-5.397-5.936-11.333-7.375-17.629-.72-3.058-1.259-6.296-1.619-9.534-.18-1.26 0-8.095-2.878-6.296-.9.539-1.08 1.619-1.439 2.698-1.26 5.217-2.339 10.613-3.778 15.83-1.079 4.137-1.619 9.894-4.317 13.312-.9 1.259-2.159 2.338-2.699 3.777l-31.66-7.195c-1.26-2.159-2.159-4.497-1.619-7.016 3.418.36 4.317 6.116 7.735 5.936 2.519 0 3.418-3.417 2.878-5.756-1.079-5.217-5.396-8.814-8.634-12.772-1.44-1.979-2.878-3.958-3.418-6.296-.18-.54-.9-2.698-.54-3.238.9-1.259 2.159.36 2.519 1.079.72 1.08 1.439 2.339 2.158 3.418a6.2 6.2 0 002.159 2.159c.9.539 1.979.719 2.878.36 1.26-.54 1.8-1.979 1.979-3.418.18-2.159-.72-4.138-1.979-5.937-1.259-1.798-2.698-3.238-4.137-4.857a29.349 29.349 0 01-3.058-3.597c-1.08-1.26-5.397-9.534-2.159-10.614.72-.18 1.62.18 2.339.72.54.54 1.079 1.259 1.619 1.979 1.259 1.439 3.238 2.338 5.216 2.158.54 0 1.08-.18 1.44-.359.719-.54.899-1.26.899-2.159 0-2.519-1.44-4.677-2.878-6.836-1.62-2.159-2.699-4.497-4.138-6.836-1.619-2.698-3.418-4.857-3.777-8.095 2.878-2.698 5.756 6.117 9.534 4.857 2.698-.899 1.439-4.857-.18-7.195-3.598-5.397-5.937-11.333-7.376-17.629-.72-3.058-1.259-6.296-1.619-9.534-.18-1.259 0-8.095-2.878-6.296-.9.54-1.08 1.619-1.439 2.698-1.26 5.217-2.338 10.614-3.778 15.83-1.079 4.138-1.618 9.894-4.317 13.312-1.439 1.979-3.238 3.418-3.058 6.116 0 .18 0 .36.18.54.18.36.54.36.72.539 3.058 1.08 5.216-1.259 7.195-3.238.18-.179.54-.539.9-.719.36-.18.719-.18 1.079.18.72.719 0 2.698 0 3.598-.36 2.698-1.62 5.216-3.238 7.375-2.519 3.598-5.936 6.476-8.095 10.433-.36.72-.72 1.619-.72 2.519.18 1.799 1.8 2.698 3.418 2.698 2.159.18 3.238-1.439 4.138-3.238.54-1.259.899-2.518 2.158-3.058.36-.18.72-.18.9 0 0 .18 0 .18.18.36.18 2.518-.36 5.037-1.44 7.375-1.079 2.339-2.878 3.958-4.856 5.757a11.763 11.763 0 00-2.699 3.238c-.54.899-.9 1.978-.72 2.878.18 1.079.72 1.979 1.62 2.338 1.259.54 2.878-.179 3.777-1.259.54-.539 3.238-5.037 4.318-3.238.36.54-.36 3.058-.54 3.778a52.29 52.29 0 01-2.159 7.015c-1.799 4.678-4.677 8.815-8.095 12.413l-.18.18-15.29-7.016c-1.26-1.799-2.698-3.238-4.137-4.857a29.266 29.266 0 01-3.059-3.598c-1.079-1.259-5.396-9.534-2.158-10.613.72-.18 1.619.18 2.338.719.54.54 1.08 1.26 1.62 1.979 1.259 1.439 3.237 2.339 5.216 2.159.54 0 1.08-.18 1.44-.36.719-.54.899-1.259.899-2.159 0-2.518-1.44-4.677-2.879-6.835-1.619-2.159-2.698-4.497-4.137-6.836-1.619-2.698-3.418-4.857-3.778-8.095 2.879-2.698 5.757 6.116 9.534 4.857 2.699-.899 1.44-4.857-.18-7.195-3.597-5.397-5.936-11.333-7.375-17.629-.72-3.059-1.26-6.297-1.619-9.535-.18-1.259 0-8.094-2.878-6.296-.9.54-1.08 1.619-1.44 2.699-1.258 5.216-2.338 10.613-3.777 15.83-1.08 4.137-1.619 9.894-4.317 13.311-1.44 1.979-3.238 3.418-3.058 6.117 0 .18 0 .359.18.539.18.36.54.36.72.54 3.057 1.079 5.216-1.259 7.195-3.238.18-.18.54-.54.9-.719.359-.18.719-.18 1.079.179.72.72 0 2.699 0 3.598-.36 2.698-1.62 5.217-3.238 7.376-2.519 3.597-5.937 6.475-8.095 10.433-.36.72-.72 1.619-.72 2.518.18 1.799 1.799 2.699 3.418 2.699 2.159.18 3.238-1.439 4.137-3.238.54-1.259 1.08-2.519 2.159-3.058.36-.18.72-.18.9 0 0 .18 0 .18.18.359.18 2.519-.36 5.037-1.44 7.376-.36.899-.9 1.619-1.439 2.158L1.8 384.879V1118.1H1440.9V522.853h-20.15zM538.403 631.505c.9-1.26 2.159.359 2.519 1.079.719 1.079 1.259 2.159 1.979 3.058l-4.318-1.979c-.18-.899-.539-1.799-.18-2.158zm-5.576-3.418c.18.36 0 1.619-.36 2.698l-2.698-1.259c1.079-1.259 2.338-2.519 3.058-1.439zm-53.247-26.444c.54-1.259 1.08-2.518 2.159-3.058.36-.18.719-.18.899 0 0 .18 0 .18.18.36.18 2.518-.36 5.037-1.439 7.375-.18.18-.18.36-.36.72l-4.677-2.159c1.619-.18 2.699-1.619 3.238-3.238zM108.292 431.47c.18-.18.54-.54.9-.72.359-.18.719-.18 1.079.18.72.72 0 2.698 0 3.598 0 .36-.18.719-.36 1.259l-4.137-1.979c.899-.719 1.799-1.619 2.518-2.338zm-42.993-18.169c.18-.18.36-.18.54-.18.54 0 .54.72.54 1.259 0 .36-.18.72-.18 1.08l-1.98-.9c.18-.539.54-.899 1.08-1.259zM1409.42 520.514c.72-.18 1.62.18 2.34.72.54.539.9 1.079 1.44 1.619h-4.86c-.18-1.08.18-1.979 1.08-2.339zm-7.02.36c.36-.18.72-.18.9 0 0 .18 0 .18.18.36v1.439h-2.52c.18-.54.72-1.26 1.44-1.799zm-362.11 144.45l-1.44 1.439h-.54c-.36-1.08-.72-2.339-.9-3.598.9.719 1.8 1.439 2.88 2.159zm-17.81-1.08c1.44-2.518 4.32-5.396 6.66-3.777-.18 2.338-1.8 4.497-3.6 6.116h-5.22c.9-.54 1.62-1.439 2.16-2.339zm-131.137-.36c.719-.179 1.619.18 2.338.72.54.54 1.08 1.259 1.619 1.979l.54.539-5.037 1.799c-.899-2.338-1.079-4.497.54-5.037zm-36.517 13.672c1.619.18 2.518 1.439 3.597 2.878l-3.238 1.259c-.539-1.439-.539-2.698-.359-4.137z" fill="#EF4335"/>
    <path d="M1307.78 749.331c1.8-.18 3.6-1.079 4.5-2.518 2.52-4.138-1.98-8.635-5.4-12.053-4.13-4.317-7.19-9.714-8.81-15.47 1.98 2.518 4.14 4.677 6.65 6.476 1.8 1.259 3.78 1.079 4.5-1.259.36-1.08.18-1.979.18-3.059-.18-2.158-.54-4.497-1.44-6.475-1.62-3.598-4.67-6.117-7.01-9.175-2.34-3.058-4.5-6.835-3.78-10.613.18-.54.36-1.259.9-1.439.9-.36 1.98.36 2.34 1.079 1.08 1.799 1.08 3.238 3.42 2.518 1.61-.539 2.87-2.518 2.69-4.137 0-1.439-.72-2.698-1.44-3.778-3.59-6.296-10.79-11.872-9.71-19.967 0-.54.18-1.259.72-1.619 1.08-.899 2.7.36 3.42 1.439.72 1.259 1.98 2.698 3.42 2.159 1.25-.54 1.25-2.339.9-3.598-1.62-6.116-5.4-11.333-7.92-16.909-.72-1.44-1.26-3.059-1.08-4.678 0-.359.18-.539.36-.899.36-.54 1.44-.54 1.98 0 1.26 1.079 1.44 3.418 3.6 3.598 1.98.18 3.41-1.979 3.41-4.138-.17-1.978-1.43-3.777-2.51-5.396-7.92-12.412-7.74-28.962-12.6-42.634-.18-.539-.36-1.079-.9-1.439-.89-.719-2.33 0-2.69 1.08-.54 1.079-.36 2.158-.18 3.238 1.08 9.354-.72 18.888-2.34 28.242-.72 3.598-1.26 7.016-2.52 10.433-1.62 4.318-3.96 8.455-5.76 12.772-.9 2.159-1.08 5.397 1.08 6.117 2.7.899 4.86-3.598 7.74-3.418 4.85.18 1.08 6.656.18 8.454-2.16 4.318-5.58 8.275-5.76 13.312 0 .72 0 1.439.36 1.979 2.52 3.957 6.12-2.339 7.2-3.958.54-.719 1.62-1.259 2.34-.719.71.539.71 1.439.53 2.338-1.07 9.894-11.33 16.01-14.03 25.544-.36 1.26-.54 2.519 0 3.598 1.26 2.519 5.22 1.799 7.38-.18 1.44-1.439 2.34-3.238 3.78-4.677 1.44-1.439 4.13-2.158 3.41 1.08-.18 1.079-1.07 1.978-1.79 2.878-2.16 2.518-4.5 4.857-6.84 7.195a34.064 34.064 0 00-3.6 3.598c-1.26 1.619-1.8 3.778-2.52 5.756-.54 1.799-1.08 3.958.36 5.217.9.72 2.16.72 3.24.36 1.08-.54 1.8-1.259 2.7-2.159 1.26-1.439 2.34-3.058 3.24-4.677.54-.36 1.44 0 1.62.54.36.539.18 1.259.18 1.979-.9 5.576-3.6 8.094-7.38 11.512-4.14 3.778-9.17 7.736-9.71 13.492-.18 1.079 0 2.159.36 3.058h-40.12l-29.14 16.73c-1.08-1.26-2.34-2.699-3.42-3.778-4.13-4.317-7.19-9.714-8.81-15.47 1.98 2.518 4.14 4.677 6.65 6.476 1.8 1.259 3.78 1.079 4.5-1.26.36-1.079.18-1.978.18-3.058-.18-2.158-.54-4.497-1.44-6.476-1.62-3.597-4.68-6.116-7.01-9.174-2.52-2.878-4.5-6.836-3.78-10.613.18-.54.36-1.26.9-1.439.9-.36 1.98.359 2.34 1.079 1.08 1.799 1.08 3.238 3.41 2.518 1.62-.539 2.88-2.518 2.7-4.137 0-1.439-.72-2.698-1.44-3.778-3.59-6.296-10.79-11.872-9.71-19.967 0-.54.18-1.259.72-1.619 1.08-.9 2.7.36 3.42 1.439.72 1.259 1.98 2.698 3.41 2.159 1.26-.54 1.26-2.339.9-3.598-1.61-6.116-5.39-11.333-7.91-16.91-.72-1.439-1.26-3.058-1.08-4.677 0-.36.18-.539.36-.899.36-.54 1.44-.54 1.98 0 1.26 1.079 1.44 3.418 3.6 3.598 1.98.179 3.41-1.979 3.41-4.138-.18-1.979-1.43-3.777-2.51-5.396-7.92-12.413-7.74-28.962-12.6-42.634-.18-.539-.36-1.079-.9-1.439-.9-.719-2.33 0-2.69 1.079-.54 1.08-.36 2.159-.18 3.238 1.08 9.354-.72 18.889-2.34 28.243-.72 3.597-1.26 7.015-2.52 10.433-1.62 4.317-3.96 8.455-5.76 12.772-.9 2.159-1.08 5.397 1.08 6.116 2.7.9 4.86-3.597 7.74-3.417 4.85.179 1.08 6.655.18 8.454-2.16 4.318-5.58 8.275-5.76 13.312 0 .719 0 1.439.36 1.979 2.52 3.957 6.12-2.339 7.2-3.958.54-.719 1.61-1.259 2.33-.719.72.539.72 1.439.54 2.338-1.08 9.894-11.33 16.01-14.03 25.544-.36 1.259-.54 2.519 0 3.598 1.26 2.518 5.22 1.799 7.38-.18 1.44-1.439 2.34-3.238 3.78-4.677 1.43-1.439 4.13-2.159 3.41 1.079-.18 1.08-1.08 1.979-1.8 2.878-2.15 2.519-4.49 4.857-6.83 7.196a33.97 33.97 0 00-3.6 3.598c-1.26 1.619-1.8 3.777-2.52 5.756-.54 1.799-1.08 3.958.36 5.217.9.719 2.16.719 3.24.36 1.08-.54 1.8-1.259 2.7-2.159 1.26-1.439 2.34-3.058 3.24-4.677.54-.36 1.44 0 1.62.54.36.539.18 1.259.18 1.978-.9 5.577-3.6 8.095-7.38 11.513-4.14 3.778-9.17 7.735-9.71 13.492-.18 1.259 0 2.698.9 3.597 2.51 2.879 7.01-.539 8.99-3.777 1.98-3.238 5.76-7.196 8.81-4.857-.18 4.497-4.49 8.275-8.09 10.433-3.78 2.339-6.3 4.677-7.38 8.815l-20.32 11.693h-101.28c-.54-.54-.9-1.08-1.44-1.619-1.08-1.26-5.4-9.534-2.16-10.614.72-.18 1.62.18 2.34.72.54.539 1.08 1.259 1.62 1.979 1.26 1.439 3.24 2.338 5.22 2.158.54 0 1.08-.18 1.44-.36.72-.539.9-1.259.9-2.158 0-2.519-1.44-4.677-2.88-6.836-1.62-2.159-2.7-4.497-4.14-6.836-1.62-2.698-3.42-4.857-3.78-8.095 2.88-2.698 5.76 6.116 9.54 4.857 2.69-.899 1.44-4.857-.18-7.195-3.6-5.397-5.94-11.333-7.38-17.629-.72-3.058-1.26-6.296-1.62-9.534-.18-1.259 0-8.095-2.88-6.296-.9.539-1.08 1.619-1.44 2.698-1.25 5.217-2.33 10.613-3.77 15.83-1.08 4.138-1.62 9.894-4.32 13.312-1.44 1.979-3.24 3.418-3.06 6.116 0 .18 0 .36.18.54.18.359.54.359.72.539 3.06 1.08 5.22-1.259 7.2-3.238.18-.18.54-.539.9-.719.36-.18.72-.18 1.08.18.71.719 0 2.698 0 3.597-.36 2.699-1.62 5.217-3.24 7.376-2.52 3.598-5.94 6.476-8.1 10.433-.36.72-.72 1.619-.72 2.519.18 1.799 1.8 2.698 3.42 2.698 2.16.18 3.24-1.439 4.14-3.238.54-1.259 1.08-2.518 2.16-3.058.36-.18.72-.18.9 0 0 .18 0 .18.18.36.18 2.518-.36 5.037-1.44 7.375-.72 1.619-1.8 2.698-2.88 3.958h-34.54c-.719-1.799-1.259-3.778-1.619-5.757 2.159 1.799 4.318 3.598 6.836 4.318 2.699.719 5.933 0 7.373-2.339 2.52-4.137-1.98-8.635-5.394-12.052-4.137-4.318-7.196-9.714-8.815-15.471 1.979 2.519 4.138 4.677 6.656 6.476 1.799 1.259 3.778 1.08 4.493-1.259.36-1.079.18-1.979.18-3.058-.18-2.159-.54-4.497-1.435-6.476-1.619-3.598-4.677-6.116-7.015-9.174-2.339-3.058-4.498-6.836-3.778-10.614.18-.539.36-1.259.899-1.439.9-.36 1.979.36 2.339 1.08 1.079 1.798 1.079 3.237 3.418 2.518 1.619-.54 2.878-2.518 2.698-4.137 0-1.44-.719-2.699-1.439-3.778-3.598-6.296-10.793-11.873-9.714-19.968 0-.539.18-1.259.72-1.619 1.079-.899 2.698.36 3.418 1.439.719 1.26 1.978 2.699 3.417 2.159 1.26-.539 1.26-2.338.9-3.598-1.619-6.116-5.397-11.333-7.915-16.909-.72-1.439-1.259-3.058-1.08-4.677 0-.36.18-.54.36-.9.36-.539 1.439-.539 1.979 0 1.259 1.08 1.439 3.418 3.598 3.598 1.979.18 3.418-1.979 3.418-4.137-.18-1.979-1.439-3.778-2.519-5.397-7.915-12.412-7.735-28.962-12.592-42.633-.18-.54-.36-1.08-.899-1.439-.9-.72-2.339 0-2.699 1.079-.539 1.079-.359 2.159-.18 3.238 1.08 9.354-.719 18.888-2.338 28.242-.72 3.598-1.259 7.016-2.519 10.434-1.619 4.317-3.957 8.454-5.756 12.772-.899 2.158-1.079 5.396 1.079 6.116 2.699.899 4.857-3.598 7.736-3.418 4.857.18 1.079 6.656.179 8.455-2.158 4.317-5.576 8.275-5.756 13.312 0 .719 0 1.439.36 1.978 2.518 3.958 6.116-2.338 7.195-3.957.54-.72 1.619-1.259 2.339-.72.719.54.719 1.439.54 2.339-1.08 9.894-11.333 16.01-14.032 25.544-.359 1.259-.539 2.518 0 3.598 1.26 2.518 5.217 1.798 7.376-.18 1.439-1.439 2.338-3.238 3.777-4.677 1.439-1.44 4.138-2.159 3.418 1.079-.18 1.079-1.079 1.979-1.799 2.878-2.158 2.519-4.497 4.857-6.835 7.196a33.848 33.848 0 00-3.598 3.597c-1.259 1.619-1.799 3.778-2.519 5.757-.539 1.799-1.079 3.957.36 5.216.9.72 2.159.72 3.238.36 1.079-.539 1.799-1.259 2.698-2.158 1.26-1.439 2.339-3.058 3.238-4.677.54-.36 1.44 0 1.619.539.36.54.18 1.259.18 1.979-.899 5.576-3.597 8.095-7.375 11.513-4.137 3.777-9.174 7.735-9.714 13.491-.18 1.26 0 2.699.899 3.598l.36.36h-14.211c-1.619-1.979-3.238-3.778-4.677-5.577-1.439-1.978-2.878-3.957-3.418-6.296-.18-.539-.899-2.698-.539-3.238.899-1.259 2.158.36 2.518 1.08.719 1.079 1.439 2.338 2.159 3.417a6.196 6.196 0 002.158 2.159c.9.54 1.979.72 2.878.36 1.26-.54 1.799-1.979 1.979-3.418.18-2.159-.719-4.137-1.979-5.936-1.259-1.799-2.698-3.238-4.137-4.857a29.415 29.415 0 01-3.058-3.598c-1.079-1.259-5.397-9.534-2.159-10.613.72-.18 1.619.18 2.339.719.539.54 1.079 1.26 1.619 1.979 1.259 1.439 3.238 2.339 5.217 2.159.539 0 1.079-.18 1.439-.36.719-.54.899-1.259.899-2.159 0-2.518-1.439-4.677-2.878-6.835-1.619-2.159-2.698-4.498-4.138-6.836-1.619-2.699-3.417-4.857-3.777-8.095 2.878-2.699 5.756 6.116 9.534 4.857 2.698-.9 1.439-4.857-.18-7.196-3.598-5.396-5.936-11.333-7.375-17.629-.72-3.058-1.26-6.296-1.619-9.534-.18-1.259 0-8.095-2.879-6.296-.899.54-1.079 1.619-1.439 2.699-1.259 5.216-2.338 10.613-3.777 15.83-1.08 4.137-1.619 9.894-4.318 13.311-1.439 1.979-3.238 3.418-3.058 6.116 0 .18 0 .36.18.54.18.36.54.36.72.54 3.058 1.079 5.216-1.259 7.195-3.238.18-.18.54-.54.9-.72.359-.18.719-.18 1.079.18.72.72 0 2.698 0 3.598-.36 2.698-1.619 5.217-3.238 7.375-2.518 3.598-5.936 6.476-8.095 10.434-.36.719-.719 1.619-.719 2.518.179 1.799 1.798 2.699 3.417 2.699 2.159.179 3.238-1.44 4.138-3.238.54-1.26 1.079-2.519 2.158-3.059.36-.179.72-.179.9 0 0 .18 0 .18.18.36.18 2.519-.36 5.037-1.439 7.376-1.08 2.338-2.878 3.957-4.857 5.756a11.776 11.776 0 00-2.699 3.238c-.539.9-.899 1.979-.719 2.878.18 1.08.719 1.979 1.619 2.339 1.259.539 2.878-.18 3.777-1.259.54-.54 3.238-5.037 4.318-3.238.36.539-.36 3.058-.54 3.777a52.261 52.261 0 01-2.159 7.016c-.179.18-.179.54-.359.719l-19.068-19.068H776.934c.72-1.259.9-2.878.54-4.137-1.079-5.217-5.397-8.815-8.635-12.772-1.439-1.979-2.878-3.958-3.417-6.296-.18-.54-.9-2.698-.54-3.238.899-1.259 2.159.36 2.518 1.079.72 1.079 1.439 2.339 2.159 3.418a6.2 6.2 0 002.159 2.159c.899.539 1.978.719 2.878.359 1.259-.539 1.799-1.978 1.979-3.417.18-2.159-.72-4.138-1.979-5.937-1.259-1.799-2.698-3.238-4.138-4.857a29.418 29.418 0 01-3.058-3.597c-1.079-1.26-5.396-9.534-2.158-10.614.719-.18 1.619.18 2.338.72.54.539 1.08 1.259 1.619 1.979 1.259 1.439 3.238 2.338 5.217 2.158.54 0 1.079-.18 1.439-.36.72-.539.899-1.259.899-2.158 0-2.519-1.439-4.677-2.878-6.836-1.619-2.159-2.698-4.497-4.137-6.836-1.619-2.698-3.418-4.857-3.778-8.095 2.878-2.698 5.757 6.117 9.534 4.857 2.699-.899 1.439-4.857-.18-7.195-3.597-5.397-5.936-11.333-7.375-17.629-.72-3.058-1.259-6.296-1.619-9.534-.18-1.259 0-8.095-2.878-6.296-.9.539-1.079 1.619-1.439 2.698-1.259 5.217-2.339 10.613-3.778 15.83-1.079 4.138-1.619 9.894-4.317 13.312-1.439 1.979-3.238 3.418-3.058 6.116 0 .18 0 .36.18.54.179.359.539.359.719.539 3.058 1.08 5.217-1.259 7.196-3.238.179-.18.539-.539.899-.719.36-.18.72-.18 1.079.18.72.719 0 2.698 0 3.597-.359 2.699-1.619 5.217-3.238 7.376-2.518 3.598-5.936 6.476-8.095 10.433-.359.72-.719 1.619-.719 2.519.18 1.799 1.799 2.698 3.418 2.698 2.158.18 3.238-1.439 4.137-3.238.54-1.259 1.08-2.518 2.159-3.058.36-.18.719-.18.899 0 0 .18 0 .18.18.36.18 2.518-.36 5.037-1.439 7.375-1.079 2.339-2.878 3.958-4.857 5.757a11.758 11.758 0 00-2.698 3.238c-.54.899-.9 1.978-.72 2.878.18 1.079.72 1.979 1.619 2.338 1.259.54 2.878-.18 3.778-1.259.54-.54 3.238-5.037 4.317-3.238.36.54-.36 3.058-.54 3.778a52.242 52.242 0 01-2.158 7.015c-1.799 4.677-4.677 8.815-8.095 12.413-1.439 1.439-3.238 3.238-3.058 5.396 0 .54.18.9.36 1.259h-40.655l-44.972-24.284H471.665l-3.957.719c-1.619-4.137-5.217-7.195-7.915-10.613-1.439-1.979-2.879-3.958-3.418-6.296-.18-.54-.9-2.699-.54-3.238.899-1.259 2.159.359 2.519 1.079.719 1.079 1.439 2.339 2.158 3.418a6.208 6.208 0 002.159 2.159c.899.539 1.979.719 2.878.359 1.259-.539 1.799-1.978 1.979-3.417.18-2.159-.72-4.138-1.979-5.937-1.259-1.799-2.698-3.238-4.137-4.857a29.179 29.179 0 01-3.058-3.598c-1.08-1.259-5.397-9.534-2.159-10.613.719-.18 1.619.18 2.338.72.54.539 1.08 1.259 1.619 1.978 1.26 1.44 3.238 2.339 5.217 2.159.54 0 1.079-.18 1.439-.36.72-.539.9-1.259.9-2.158 0-2.519-1.439-4.677-2.879-6.836-1.619-2.159-2.698-4.497-4.137-6.836-1.619-2.698-3.418-4.857-3.778-8.095 2.879-2.698 5.757 6.116 9.534 4.857 2.699-.899 1.44-4.857-.179-7.195-3.598-5.397-5.937-11.333-7.376-17.629-.719-3.058-1.259-6.296-1.619-9.534-.18-1.26 0-8.095-2.878-6.296-.899.539-1.079 1.619-1.439 2.698-1.259 5.217-2.339 10.613-3.778 15.83-1.079 4.138-1.619 9.894-4.317 13.312-1.439 1.978-3.238 3.418-3.058 6.116 0 .18 0 .36.18.54.18.359.539.359.719.539 3.058 1.08 5.217-1.259 7.196-3.238.18-.18.539-.539.899-.719.36-.18.72-.18 1.08.18.719.719 0 2.698 0 3.597-.36 2.699-1.619 5.217-3.238 7.376-2.519 3.597-5.937 6.476-8.095 10.433-.36.72-.72 1.619-.72 2.519.18 1.799 1.799 2.698 3.418 2.698 2.159.18 3.238-1.439 4.137-3.238.54-1.259 1.08-2.518 2.159-3.058.36-.18.72-.18.899 0 0 .18 0 .18.18.36.18 2.518-.359 5.036-1.439 7.375-1.079 2.339-2.878 3.958-4.857 5.756a11.805 11.805 0 00-2.698 3.238c-.54.9-.899 1.979-.72 2.879.18 1.079.72 1.978 1.619 2.338 1.26.54 2.879-.18 3.778-1.259.54-.54 3.238-5.037 4.317-3.238.36.54-.359 3.058-.539 3.778a52.394 52.394 0 01-2.159 7.015c-1.799 4.677-4.677 8.815-8.095 12.412-1.439 1.44-3.238 3.238-3.058 5.397 0 .36.18.72.18.9l-92.642 17.629H.899v262.813H1440V749.331h-132.22zm-858.601 3.958v.359l-2.518.54c.36-.72.899-1.439 1.619-1.799.18-.18.36-.18.539-.18.36-.18.54.54.36 1.08zm308.687 17.089c-.18 1.079-.359 2.159-.719 3.058h-3.418c.899-1.439 1.439-3.058 3.058-4.137.18-.18.36-.18.54-.18.539.18.719.899.539 1.259zm8.995 3.238c-.54-1.439-.72-2.878-.36-4.317 2.159.179 3.238 2.698 4.677 4.317h-4.317zm205.791 26.263h-7.016c1.619-.899 3.238-2.518 4.318-4.137 1.979-3.238 5.756-7.196 8.814-4.857-.18 3.598-3.058 6.656-6.116 8.994zm214.608-26.983c0-.18-.18-.539-.18-.719l.54.539-.36.18zm94.98-23.565h-6.84c1.08-.899 1.98-1.979 2.7-3.058 1.98-3.238 5.76-7.196 8.82-4.857 0 3.058-2.16 5.756-4.68 7.915zm16.91 0c-.54-1.439-.9-3.058-1.08-4.677 2.16 1.799 4.32 3.598 6.83 4.317.36.18.9.18 1.26.18h-7.01v.18z" fill="#C9223E"/>
    <path d="M1404.56 798.08c-.18-1.619-.9-3.417-1.8-4.856-1.26-1.799-2.7-3.238-4.13-4.857a29.43 29.43 0 01-3.06-3.598c-1.08-1.259-5.4-9.534-2.16-10.614.72-.179 1.62.18 2.34.72.54.54 1.08 1.259 1.62 1.979 1.26 1.439 3.23 2.338 5.21 2.158.54 0 1.08-.18 1.44-.359.72-.54.9-1.26.9-2.159 0-2.519-1.44-4.677-2.88-6.836-1.62-2.158-2.69-4.497-4.13-6.835-1.62-2.699-3.42-4.857-3.78-8.095 2.88-2.699 5.76 6.116 9.53 4.857 2.7-.9 1.44-4.857-.18-7.196-3.59-5.397-5.93-11.333-7.37-17.629-.72-3.058-1.26-6.296-1.62-9.534-.18-1.259 0-8.095-2.88-6.296-.9.54-1.08 1.619-1.44 2.698-1.26 5.217-2.34 10.614-3.78 15.83-1.08 4.138-1.62 9.894-4.31 13.312-1.44 1.979-3.24 3.418-3.06 6.116 0 .18 0 .36.18.54.18.36.54.36.72.54 3.06 1.079 5.21-1.26 7.19-3.238.18-.18.54-.54.9-.72.36-.18.72-.18 1.08.18.72.719 0 2.698 0 3.598-.36 2.698-1.62 5.216-3.24 7.375-2.51 3.598-5.93 6.476-8.09 10.433-.36.72-.72 1.62-.72 2.519.18 1.799 1.8 2.698 3.42 2.698 2.16.18 3.24-1.439 4.13-3.238.54-1.259.9-2.518 2.16-3.058.36-.18.72-.18.9 0 0 .18 0 .18.18.36.18 2.518-.36 5.037-1.44 7.375-1.08 2.339-2.87 3.958-4.85 5.757a11.78 11.78 0 00-2.7 3.238c-.54.899-.9 1.979-.72 2.878.18 1.079.72 1.979 1.62 2.339 1.26.539 2.88-.18 3.78-1.26.53-.539 3.23-5.037 4.31-3.238.36.54-.36 3.058-.54 3.778-.18.719-.36 1.259-.54 1.979h-18.35c.72-.36 1.26-.9 1.62-1.619.18-.72.18-1.619.18-2.339-.72-5.396-3.23-10.433-7.01-14.211-1.98-1.979-4.32-3.778-6.3-5.756-1.26-1.439-6.65-10.434-1.08-10.254.72 0 1.26.36 1.8.9 1.26 1.259 2.16 2.878 3.42 4.137 1.26 1.259 3.24 2.338 4.86 1.439 2.33-1.079 2.15-4.317 1.44-6.656-1.62-5.037-4.32-9.534-7.74-13.671-3.06-3.598-8.27-7.556-6.66-12.952.18-.72.54-1.439 1.08-1.799.9-.72 2.34-.72 3.42 0 1.08.54 1.8 1.619 2.7 2.518 1.08 1.44 5.94 9.175 8.09 4.857.36-.539.36-1.259.18-1.978-.35-6.117-2.33-12.233-5.93-17.45-3.24-4.677-7.56-8.634-9.72-13.851-1.25-3.058-1.43-8.634 2.88-8.814 3.6 0 6.3 4.317 9.18 5.936 2.16 1.259 5.93 1.079 6.65-1.439.36-.9 0-1.979-.36-3.058-1.8-5.577-4.85-11.153-8.99-15.471-3.96-3.957-7.38-6.296-9.72-11.872-.89-2.159-1.25-5.037.54-6.296 1.44-.9 3.6-.36 4.86.899 1.26 1.259 2.16 2.699 3.6 3.958 1.26 1.259 3.42 1.799 4.86.899 1.26-.719 1.62-2.338 1.44-3.777-.18-1.44-.9-2.699-1.8-3.778-2.34-3.958-5.04-7.735-7.38-11.513-1.8-3.058-5.04-6.836-5.58-10.433-.18-1.26 0-2.699 1.26-3.238.9-.36 1.8 0 2.52.539.72.54 1.26 1.259 1.8 1.799 1.26 1.259 3.06 2.159 4.86 2.339 1.26.18 2.52 0 3.42-.9.72-.719.72-1.799.72-2.878-.36-4.137-3.6-7.195-6.66-10.074-1.8-1.798-11.33-13.491-7.02-15.83 3.42-1.799 7.92 8.815 11.52 4.498.9-1.26.9-3.059.36-4.498-.54-1.619-1.62-3.058-2.88-4.137-1.62-1.259-3.6-2.159-5.4-3.238-2.34-1.439-8.09-9.354-3.78-11.333 3.24-1.439 5.58 3.238 7.92 4.497.72.36 1.98.54 2.52-.18l.18-.18c.18-.359.18-.719.18-1.079.36-5.037-2.34-9.894-5.04-14.211s-5.94-8.635-6.66-13.672c-.18-.899-.18-1.798.18-2.518.36-.72 1.26-1.439 2.16-1.259 1.44.36.54 2.878 1.8 3.777 1.08.9 3.06.72 4.32 0 1.8-1.259 2.34-3.957 1.62-6.116-.54-2.158-2.16-3.957-3.42-5.756-4.14-5.936-7.02-12.592-8.27-19.608-1.44-6.836-.36-13.312-.36-20.147 0-1.799.36-10.973-2.7-10.794-2.88.18-3.06 8.095-3.24 10.074-.9 15.291-2.34 31.84-12.05 43.713-1.26 1.619-2.7 3.058-3.06 5.037-.18 1.979.9 3.957 2.52 4.857 1.8.899 3.95.539 5.39-.9.9-.899 1.98-3.238 3.6-1.799.72.72.9 1.619.9 2.519.36 6.296-2.52 12.412-5.94 17.629-3.41 5.396-7.37 10.433-9.17 16.549-.54 1.979-1.08 3.958-.54 5.937.54 1.978 2.16 3.777 4.14 3.777 3.24.18 3.78-2.878 6.29-4.137 1.26-.72 2.88-.54 3.78.36.72.719.72 1.619.72 2.698-.18 4.677-4.5 8.095-7.91 11.333-3.96 3.958-7.02 8.635-9 13.851-.54 1.439-1.08 3.058-.9 4.677.18 1.619.72 3.238 2.16 4.138 2.16 1.439 5.04.539 6.84-1.079 1.8-1.619 2.88-4.138 4.13-6.297.72-1.259 1.62-2.518 3.06-2.878 5.58-1.259 1.62 8.275.36 9.714-6.65 8.635-15.83 17.269-15.29 28.063.18 1.798.72 3.777 2.16 4.497 2.34 1.079 4.68-1.259 6.12-3.418.9-1.259 7.19-14.211 8.09-7.555.72 6.476-4.14 9.354-7.55 13.671a48.19 48.19 0 00-8.82 16.73c-.72 2.518-.9 6.116 1.62 7.195 3.78 1.619 5.22-3.598 7.38-5.397 2.33-1.978 5.75-.899 6.47 2.339.36 1.979-.36 3.958-1.26 5.577-4.13 7.195-12.41 11.512-15.29 19.248-.72 2.158-.9 4.857.9 6.296 3.06 2.158 5.94-1.619 7.92-3.418.72-.54 1.44-1.26 2.34-1.26.9 0 1.79.9 1.97 1.799.18.9 0 1.979-.18 2.879-2.51 7.915-9.53 11.512-14.21 17.629-2.16 2.698-3.59 6.116-4.13 9.534-.36 1.619-.36 3.417.36 5.036.72 1.619 2.15 2.879 3.77 2.879 2.16 0 3.78-2.159 4.5-4.138.72-1.978 1.26-4.317 2.7-5.756 1.8-1.979 5.76-1.799 6.12 1.439.17 2.339-3.6 5.576-4.86 7.555-4.86 7.556-9.54 15.291-13.85 23.026-.9 1.619-1.8 3.238-1.98 5.037-.18 1.799.54 3.957 2.16 4.857 1.08.539 2.34.539 3.41.359 9.36-1.798 9.18-14.391 15.12-19.787 0 6.296-2.34 12.592-6.48 17.449-1.8 2.159-3.96 4.137-5.76 6.296l-23.92 9.354-.54-.54c-1.44-1.978-2.88-3.957-3.42-6.296-.18-.539-.9-2.698-.54-3.238.9-1.259 2.16.36 2.52 1.08.72 1.079 1.44 2.338 2.16 3.418a6.2 6.2 0 002.16 2.158c.9.54 1.98.72 2.87.36 1.26-.54 1.8-1.979 1.98-3.418.18-2.158-.72-4.137-1.98-5.936-1.25-1.799-2.69-3.238-4.13-4.857a29.355 29.355 0 01-3.06-3.598c-1.08-1.259-5.4-9.534-2.16-10.613.72-.18 1.62.18 2.34.719.54.54 1.08 1.26 1.62 1.979 1.26 1.439 3.24 2.339 5.21 2.159.54 0 1.08-.18 1.44-.36.72-.54.9-1.259.9-2.159 0-2.518-1.44-4.677-2.88-6.835-1.61-2.159-2.69-4.498-4.13-6.836-1.62-2.698-3.42-4.857-3.78-8.095 2.88-2.698 5.76 6.116 9.53 4.857 2.7-.9 1.44-4.857-.18-7.196-3.59-5.396-5.93-11.333-7.37-17.629-.72-3.058-1.26-6.296-1.62-9.534-.18-1.259 0-8.095-2.88-6.296-.9.54-1.08 1.619-1.44 2.699-1.26 5.216-2.34 10.613-3.78 15.83-1.07 4.137-1.61 9.894-4.31 13.311-1.44 1.979-3.24 3.418-3.06 6.117 0 .179 0 .359.18.539.18.36.54.36.72.54 3.06 1.079 5.22-1.259 7.19-3.238.18-.18.54-.54.9-.72.36-.179.72-.179 1.08.18.72.72 0 2.699 0 3.598-.36 2.698-1.62 5.217-3.23 7.375-2.52 3.598-5.94 6.476-8.1 10.434-.36.719-.72 1.619-.72 2.518.18 1.799 1.8 2.699 3.42 2.699 2.16.18 3.24-1.439 4.14-3.238.54-1.26 1.08-2.519 2.15-3.058.36-.18.72-.18.9 0 0 .179 0 .179.18.359.18 2.519-.36 5.037-1.44 7.376-1.07 2.338-2.87 3.957-4.85 5.756-1.08.9-1.98 1.979-2.7 3.238-.54.899-.9 1.979-.72 2.878.18 1.08.72 1.979 1.62 2.339 1.26.54 2.88-.18 3.78-1.259.54-.54 3.23-5.037 4.31-3.238.36.539-.36 3.058-.54 3.777a53.693 53.693 0 01-2.15 7.016 43.063 43.063 0 01-6.48 10.613l-75.73 33.1h-80.59c-.18-.18-.18-.36-.36-.54-1.26-1.799-2.7-3.238-4.14-4.857a29.355 29.355 0 01-3.06-3.598c-1.08-1.259-5.39-9.534-2.16-10.613.72-.18 1.62.18 2.34.719.54.54 1.08 1.26 1.62 1.979 1.26 1.439 3.24 2.339 5.22 2.159.54 0 1.08-.18 1.44-.36.72-.54.9-1.259.9-2.159 0-2.518-1.44-4.677-2.88-6.835-1.62-2.159-2.7-4.498-4.14-6.836-1.62-2.698-3.42-4.857-3.78-8.095 2.88-2.698 5.76 6.116 9.54 4.857 2.7-.899 1.44-4.857-.18-7.196-3.6-5.396-5.94-11.332-7.38-17.629-.72-3.058-1.26-6.296-1.62-9.534-.18-1.259 0-8.094-2.88-6.296-.89.54-1.07 1.619-1.43 2.699-1.26 5.216-2.34 10.613-3.78 15.83-1.08 4.137-1.62 9.894-4.32 13.312-1.44 1.978-3.24 3.417-3.06 6.116 0 .18 0 .359.18.539.18.36.54.36.72.54 3.06 1.079 5.22-1.259 7.2-3.238.18-.18.54-.54.9-.72.36-.179.72-.179 1.08.18.72.72 0 2.699 0 3.598-.36 2.698-1.62 5.217-3.24 7.376-2.52 3.597-5.94 6.475-8.1 10.433-.36.72-.72 1.619-.72 2.518.18 1.799 1.8 2.699 3.42 2.699 2.16.18 3.24-1.439 4.14-3.238.54-1.26.9-2.519 2.16-3.058.36-.18.72-.18.9 0 0 .179 0 .179.18.359.18 2.519-.36 5.037-1.44 7.376-1.08 2.338-2.88 3.957-4.86 5.756-1.08.9-1.98 1.979-2.7 3.238-.36.72-.72 1.619-.72 2.519h-25.9l-110.812 40.474-83.468-13.671-60.262 13.671h-43.173l-444.862 70.336v149.127H1441.98V796.641h-37.42v1.439zm-297.35 60.443c.18.36.18.899 0 1.619h-3.06c1.08-1.26 2.52-2.699 3.06-1.619zm285.84-62.961c.9-1.259 2.16.36 2.52 1.079.18.54.54.9.9 1.26h-3.06c-.36-.72-.72-1.979-.36-2.339zm-35.26-2.698c1.44.899 2.52 2.158 3.6 3.238.9.719 1.8 1.439 2.88 1.978h-6.66c-.54-.719-.9-1.439-1.44-2.158-.72-1.619-1.62-5.217 1.62-3.058z" fill="#7F0133"/>
    <path d="M1396.11 913.209c-1.08-1.979-1.62-3.958-1.26-6.297 3.42.36 4.32 6.117 7.73 5.937 2.52 0 3.42-3.418 2.88-5.757-1.08-5.216-5.4-8.814-8.63-12.772-1.44-1.978-2.88-3.957-3.42-6.296-.18-.539-.9-2.698-.54-3.238.9-1.259 2.16.36 2.52 1.08.72 1.079 1.44 2.338 2.16 3.418a6.2 6.2 0 002.16 2.158c.89.54 1.97.72 2.87.36 1.26-.54 1.8-1.979 1.98-3.418.18-2.159-.72-4.137-1.98-5.936-1.26-1.799-2.69-3.238-4.13-4.857a29.355 29.355 0 01-3.06-3.598c-1.08-1.259-5.4-9.534-2.16-10.613.72-.18 1.62.18 2.34.719.54.54 1.08 1.26 1.62 1.979 1.26 1.439 3.23 2.339 5.21 2.159.54 0 1.08-.18 1.44-.36.72-.54.9-1.259.9-2.159 0-2.518-1.44-4.677-2.88-6.835-1.62-2.159-2.69-4.498-4.13-6.836-1.62-2.699-3.42-4.857-3.78-8.095 2.88-2.698 5.76 6.116 9.53 4.857 2.7-.9 1.44-4.857-.18-7.196-3.59-5.396-5.93-11.333-7.37-17.629-.72-3.058-1.26-6.296-1.62-9.534-.18-1.259 0-8.095-2.88-6.296-.9.54-1.08 1.619-1.44 2.699-1.26 5.216-2.34 10.613-3.78 15.83-1.08 4.137-1.62 9.894-4.31 13.311-1.44 1.979-3.24 3.418-3.06 6.117 0 .179 0 .359.18.539.18.36.54.36.72.54 3.06 1.079 5.21-1.259 7.19-3.238.18-.18.54-.54.9-.72.36-.18.72-.18 1.08.18.72.72 0 2.699 0 3.598-.36 2.698-1.62 5.217-3.24 7.375-2.51 3.598-5.93 6.476-8.09 10.434-.36.719-.72 1.619-.72 2.518.18 1.799 1.8 2.699 3.42 2.699 2.16.179 3.24-1.44 4.13-3.238.54-1.26.9-2.519 2.16-3.059.36-.179.72-.179.9 0 0 .18 0 .18.18.36.18 2.519-.36 5.037-1.44 7.376-1.08 2.338-2.87 3.957-4.85 5.756a11.78 11.78 0 00-2.7 3.238c-.54.9-.9 1.979-.72 2.878.18.9.72 1.979 1.62 2.339 1.26.539 2.88-.18 3.78-1.259.54-.54 3.23-5.037 4.31-3.238.36.539-.36 3.058-.54 3.777a52.268 52.268 0 01-2.16 7.016c-1.79 4.677-4.67 8.814-8.09 12.412-1.44 1.439-3.24 3.238-3.06 5.397 0 .18 0 .359.18.539l-500.266-60.982c-3.958-4.137-6.836-9.354-8.275-14.93 1.979 2.518 4.137 4.677 6.656 6.476 1.799 1.259 3.777 1.079 4.497-1.259.36-1.08.18-1.979.18-3.059-.18-2.158-.54-4.497-1.439-6.475-1.619-3.598-4.677-6.117-7.016-9.175-2.518-2.878-4.497-6.835-3.777-10.613.18-.54.359-1.259.899-1.439.9-.36 1.979.36 2.339 1.079 1.079 1.799 1.079 3.238 3.417 2.518 1.619-.539 2.879-2.518 2.699-4.137 0-1.439-.72-2.698-1.439-3.777-3.598-6.297-10.794-11.873-9.714-19.968 0-.54.18-1.259.719-1.619 1.08-.899 2.699.36 3.418 1.439.72 1.259 1.979 2.698 3.418 2.159 1.259-.54 1.259-2.339.899-3.598-1.619-6.116-5.396-11.333-7.915-16.909-.719-1.44-1.259-3.059-1.079-4.678 0-.359.18-.539.36-.899.36-.54 1.439-.54 1.979 0 1.259 1.079 1.439 3.418 3.597 3.598 1.979.18 3.418-1.979 3.418-4.138-.18-1.978-1.439-3.777-2.518-5.396-7.915-12.412-7.735-28.962-12.592-42.634-.18-.539-.36-1.079-.9-1.439-.899-.719-2.338 0-2.698 1.08-.54 1.079-.36 2.158-.18 3.238 1.079 9.354-.719 18.888-2.338 28.242-.72 3.598-1.26 7.016-2.519 10.433-1.619 4.318-3.957 8.455-5.756 12.772-.9 2.159-1.08 5.397 1.079 6.117 2.698.899 4.857-3.598 7.735-3.418 4.857.18 1.08 6.656.18 8.454-2.159 4.318-5.576 8.275-5.756 13.312 0 .72 0 1.439.359 1.979 2.519 3.957 6.117-2.339 7.196-3.958.54-.719 1.619-1.259 2.338-.719.72.54.72 1.439.54 2.338-1.079 9.894-11.333 16.01-14.031 25.544-.36 1.26-.54 2.519 0 3.598 1.259 2.519 5.217 1.799 7.375-.18 1.439-1.439 2.339-3.238 3.778-4.677 1.439-1.439 4.137-2.158 3.418 1.08-.18 1.079-1.08 1.978-1.799 2.878-2.159 2.518-4.497 4.857-6.836 7.195a34.14 34.14 0 00-3.598 3.598c-1.259 1.619-1.798 3.778-2.518 5.756-.54 1.799-1.079 3.958.36 5.217.899.72 2.158.72 3.238.36 1.079-.54 1.799-1.259 2.698-2.159 1.259-1.439 2.339-3.058 3.238-4.677.54-.36 1.439 0 1.619.54.36.539.18 1.259.18 1.979-.72 4.497-2.518 7.015-5.217 9.534l-107.213-13.132-57.024-21.946c-.18-1.619-.9-3.238-1.799-4.498-1.259-1.798-2.698-3.238-4.137-4.857a29.338 29.338 0 01-3.059-3.597c-1.079-1.26-5.396-9.534-2.158-10.614.719-.18 1.619.18 2.338.72.54.54 1.08 1.259 1.619 1.979 1.26 1.439 3.238 2.338 5.217 2.158.54 0 1.079-.18 1.439-.36.72-.539.9-1.259.9-2.158 0-2.519-1.439-4.677-2.879-6.836-1.619-2.159-2.698-4.497-4.137-6.836-1.619-2.698-3.418-4.857-3.778-8.095 2.879-2.698 5.757 6.117 9.534 4.857 2.699-.899 1.439-4.857-.18-7.195-3.597-5.397-5.936-11.333-7.375-17.629-.719-3.058-1.259-6.296-1.619-9.534-.18-1.259 0-8.095-2.878-6.296-.899.54-1.079 1.619-1.439 2.698-1.259 5.217-2.339 10.614-3.778 15.83-1.079 4.138-1.619 9.894-4.317 13.312-1.439 1.979-3.238 3.418-3.058 6.116 0 .18 0 .36.18.54.18.359.539.359.719.539 3.058 1.08 5.217-1.259 7.196-3.238.18-.179.539-.539.899-.719.36-.18.72-.18 1.079.18.72.719 0 2.698 0 3.598-.359 2.698-1.618 5.216-3.237 7.375-2.519 3.598-5.937 6.476-8.095 10.433-.36.72-.72 1.619-.72 2.519.18 1.799 1.799 2.698 3.418 2.698 2.159.18 3.238-1.439 4.137-3.238.54-1.259 1.08-2.518 2.159-3.058.36-.18.72-.18.899 0 0 .18 0 .18.18.36.18 2.518-.359 5.037-1.439 7.375-1.079 2.339-2.878 3.958-4.857 5.757l-.36.359-25.544-9.893c-.719-2.879-3.597-5.757-5.936-8.095-4.137-4.318-7.195-9.714-8.814-15.471 1.978 2.519 4.137 4.677 6.656 6.476 1.798 1.259 3.777 1.08 4.497-1.259.359-1.079.18-1.979.18-3.058-.18-2.159-.54-4.497-1.44-6.476-1.619-3.598-4.677-6.116-7.015-9.174-2.519-2.878-4.497-6.836-3.778-10.614.18-.539.36-1.259.9-1.439.899-.359 1.978.36 2.338 1.08 1.079 1.798 1.08 3.238 3.418 2.518 1.619-.54 2.878-2.518 2.698-4.137 0-1.439-.719-2.699-1.439-3.778-3.598-6.296-10.793-11.873-9.714-19.968 0-.539.18-1.259.72-1.619 1.079-.899 2.698.36 3.418 1.44.719 1.079 1.979 2.698 3.418 2.158 1.259-.539 1.259-2.338.899-3.598-1.619-6.116-5.397-11.332-7.915-16.909-.72-1.439-1.259-3.058-1.079-4.677 0-.36.18-.54.359-.9.36-.539 1.44-.539 1.979 0 1.259 1.08 1.439 3.418 3.598 3.598 1.979.18 3.418-1.978 3.418-4.137-.18-1.979-1.439-3.778-2.519-5.397-7.915-12.412-7.735-28.962-12.592-42.633-.18-.54-.359-1.079-.899-1.439-.9-.72-2.339 0-2.698 1.079-.54 1.079-.36 2.159-.18 3.238 1.079 9.354-.72 18.888-2.339 28.242-.719 3.598-1.259 7.016-2.518 10.434-1.619 4.317-3.958 8.455-5.757 12.772-.899 2.159-1.079 5.397 1.08 6.116 2.698.9 4.857-3.598 7.735-3.418 4.857.18 1.079 6.656.18 8.455-2.159 4.317-5.577 8.275-5.757 13.312 0 .719 0 1.439.36 1.978 2.518 3.958 6.116-2.338 7.196-3.957.539-.72 1.619-1.259 2.338-.72.72.54.72 1.439.54 2.339-1.08 9.894-11.333 16.01-14.032 25.544-.359 1.259-.539 2.518 0 3.598 1.26 2.518 5.217 1.799 7.376-.18 1.439-1.439 2.338-3.238 3.778-4.677 1.439-1.439 4.137-2.159 3.417 1.079-.18 1.079-1.079 1.979-1.798 2.878-2.159 2.519-4.498 4.857-6.836 7.196a33.942 33.942 0 00-3.598 3.597c-1.259 1.619-1.799 3.778-2.518 5.757-.54 1.799-1.08 3.957.359 5.217.9.719 2.159.719 3.238.359 1.08-.539 1.799-1.259 2.699-2.158 1.259-1.439 2.338-3.058 3.238-4.677.539-.36 1.439 0 1.619.539.359.54.18 1.26.18 1.979-.72 4.137-2.339 6.656-4.857 9.174l-16.55-6.296h-17.989c-1.259-3.598-3.238-6.835-5.576-9.714-2.339-2.698-6.117-5.576-4.857-9.534.18-.539.359-1.079.899-1.259.72-.54 1.799-.54 2.519 0 .719.36 1.439 1.079 1.978 1.799.9 1.079 4.318 6.836 5.937 3.598.18-.36.18-.9.18-1.439-.18-4.498-1.799-8.995-4.318-12.772-2.338-3.418-5.576-6.296-7.195-10.254-.9-2.339-1.08-6.476 2.158-6.476 2.699 0 4.677 3.058 6.656 4.317 1.619.9 4.317.72 4.857-1.079.18-.72 0-1.439-.18-2.159-1.259-4.137-3.598-8.274-6.656-11.333-2.878-2.878-5.396-4.677-7.195-8.814-.72-1.619-.9-3.778.54-4.677 1.079-.72 2.518-.18 3.597.719.9.9 1.619 1.979 2.699 2.879.899.899 2.518 1.439 3.597.719.9-.539 1.26-1.799 1.08-2.698-.18-1.079-.72-1.979-1.26-2.878-1.798-2.879-3.777-5.577-5.576-8.635-1.259-2.159-3.778-5.037-4.137-7.555-.18-.9 0-1.979.899-2.519.54-.359 1.259 0 1.799.36s.899.9 1.439 1.439c.899.9 2.159 1.619 3.598 1.799.899.18 1.799 0 2.518-.719.54-.54.54-1.26.54-2.159-.18-3.058-2.698-5.397-4.857-7.375-1.439-1.26-8.455-9.894-5.217-11.693 2.519-1.439 5.757 6.476 8.455 3.238.719-.9.719-2.159.18-3.238-.36-1.259-1.26-2.339-2.159-3.058-1.259-1.08-2.698-1.619-3.957-2.339-1.799-1.079-6.117-6.835-2.879-8.275 2.339-1.079 4.138 2.519 5.757 3.418.539.36 1.439.36 1.799 0v-.18c.179-.179.179-.539.179-.719.18-3.778-1.618-7.196-3.777-10.434-1.979-3.238-4.317-6.296-5.037-10.073-.18-.72-.18-1.26.18-1.799.18-.54.899-1.08 1.619-.9 1.079.18.36 2.159 1.259 2.879.9.719 2.339.539 3.238 0 1.439-.9 1.799-2.879 1.259-4.498-.539-1.619-1.619-2.878-2.518-4.317-3.058-4.317-5.037-9.354-6.116-14.391-1.08-5.037-.18-9.894-.36-14.931 0-1.259.18-8.095-1.979-7.915-2.159.18-2.338 5.937-2.338 7.376-.72 11.333-1.619 23.565-8.995 32.379-.899 1.08-1.979 2.339-2.158 3.778a3.654 3.654 0 001.798 3.598c1.26.719 2.879.36 3.958-.72.719-.719 1.439-2.518 2.698-1.259.54.54.54 1.259.72 1.979.36 4.677-1.979 9.174-4.317 13.132-2.519 3.957-5.397 7.735-6.836 12.232-.54 1.439-.72 2.878-.36 4.317s1.619 2.699 3.058 2.879c2.519.179 2.878-2.159 4.677-3.059.9-.539 2.159-.539 2.878.36.54.54.54 1.259.54 1.979-.18 3.418-3.238 5.936-5.756 8.455-2.879 2.878-5.217 6.476-6.656 10.253-.36 1.08-.72 2.339-.72 3.418 0 1.259.54 2.339 1.619 3.058 1.619 1.08 3.778.36 5.037-.899s2.159-3.058 3.058-4.677c.54-.9 1.259-1.799 2.159-2.159 4.137-.899 1.259 6.116.36 7.196-4.857 6.476-11.693 12.772-11.333 20.687 0 1.259.539 2.698 1.619 3.238 1.799.719 3.418-.9 4.497-2.519.719-.899 5.397-10.613 5.936-5.576.54 4.677-3.058 7.015-5.576 10.073-3.058 3.598-5.217 7.736-6.476 12.233-.54 1.978-.54 4.497 1.259 5.216 2.878 1.08 3.778-2.698 5.576-3.957 1.799-1.439 4.318-.72 4.678 1.619.359 1.439-.18 2.878-.9 4.137-3.058 5.217-9.174 8.455-11.333 14.211-.54 1.619-.719 3.598.72 4.677 2.158 1.619 4.317-1.259 5.936-2.518.54-.36 1.079-.899 1.619-.899.72 0 1.259.719 1.439 1.259.18.719 0 1.439-.18 2.158-1.799 5.937-7.015 8.455-10.433 13.132-1.08 1.619-1.979 3.238-2.519 5.037h-78.431L338.009 735.48h-6.656c-2.159-2.699-3.598-5.757-3.058-8.995 3.418.36 4.317 6.116 7.735 5.937 2.518 0 3.418-3.418 2.878-5.757-1.079-5.217-5.396-8.814-8.634-12.772-1.44-1.979-2.879-3.957-3.418-6.296-.18-.54-.9-2.698-.54-3.238.899-1.259 2.159.36 2.518 1.079.72 1.08 1.44 2.339 2.159 3.418a6.2 6.2 0 002.159 2.159c.899.54 1.979.72 2.878.36 1.259-.54 1.799-1.979 1.979-3.418.18-2.159-.72-4.138-1.979-5.936-1.259-1.799-2.698-3.238-4.137-4.857a29.423 29.423 0 01-3.059-3.598c-1.079-1.259-5.396-9.534-2.158-10.614.719-.179 1.619.18 2.338.72.54.54 1.08 1.259 1.619 1.979 1.26 1.439 3.238 2.338 5.217 2.158.54 0 1.079-.179 1.439-.359.72-.54.9-1.259.9-2.159 0-2.518-1.44-4.677-2.879-6.836-1.619-2.158-2.698-4.497-4.137-6.835-1.619-2.699-3.418-4.857-3.778-8.095 2.879-2.699 5.757 6.116 9.534 4.857 2.699-.9 1.439-4.857-.179-7.196-3.598-5.397-5.937-11.333-7.376-17.629-.719-3.058-1.259-6.296-1.619-9.534-.18-1.259 0-8.095-2.878-6.296-.899.54-1.079 1.619-1.439 2.698-1.259 5.217-2.339 10.614-3.778 15.83-1.079 4.138-1.619 9.894-4.317 13.312-1.439 1.979-3.238 3.418-3.058 6.116 0 .18 0 .36.18.54.18.36.539.36.719.54 3.058 1.079 5.217-1.26 7.196-3.238.18-.18.539-.54.899-.72.36-.18.72-.18 1.079.18.72.72 0 2.698 0 3.598-.359 2.698-1.618 5.216-3.237 7.375-2.519 3.598-5.937 6.476-8.095 10.434-.36.719-.72 1.619-.72 2.518.18 1.799 1.799 2.698 3.418 2.698 2.159.18 3.238-1.439 4.137-3.238.54-1.259 1.08-2.518 2.159-3.058.36-.18.72-.18.899 0 0 .18 0 .18.18.36.18 2.518-.359 5.037-1.439 7.375-1.079 2.339-2.878 3.958-4.857 5.757a11.773 11.773 0 00-2.698 3.238c-.54.899-.9 1.979-.72 2.878.18 1.079.72 1.979 1.619 2.339 1.26.539 2.879-.18 3.778-1.26.54-.539 3.238-5.037 4.317-3.238.36.54-.359 3.058-.539 3.778a52.407 52.407 0 01-2.159 7.016c-1.799 4.677-4.677 8.814-8.095 12.412-1.439 1.439-3.238 3.238-3.058 5.397.18 2.878 3.778 4.137 6.116 3.417 3.418-.899 3.238-4.497 5.757-6.296.179-.18.359-.18.539-.18.54 0 .54.72.54 1.26-.54 2.698-1.259 5.396-2.339 7.735h-18.348v-1.08c-.54-3.957-2.339-7.735-5.217-10.433-1.439-1.439-3.238-2.698-4.677-4.317-.899-1.08-4.857-7.735-.899-7.556.539 0 .899.36 1.439.72.899.899 1.619 2.159 2.518 3.058.899.899 2.339 1.619 3.598 1.079 1.619-.719 1.619-3.238 1.079-5.037-1.259-3.777-3.238-7.015-5.756-10.073-2.339-2.699-6.116-5.577-4.857-9.534.18-.54.36-1.08.899-1.259.72-.54 1.799-.54 2.519 0 .719.359 1.439 1.079 1.978 1.798.9 1.08 4.318 6.836 5.937 3.598.18-.36.18-.899.18-1.439-.18-4.497-1.799-8.994-4.318-12.772-2.338-3.418-5.576-6.296-7.195-10.253-.9-2.339-1.08-6.477 2.158-6.477 2.699 0 4.678 3.059 6.656 4.318 1.619.899 4.318.719 4.857-1.08.18-.719 0-1.439-.18-2.158-1.259-4.138-3.597-8.275-6.656-11.333-2.878-2.878-5.396-4.677-7.195-8.815-.72-1.619-.899-3.777.54-4.677 1.079-.719 2.518-.18 3.597.72.9.899 1.619 1.979 2.699 2.878.899.9 2.518 1.439 3.597.72.9-.54 1.26-1.799 1.08-2.699-.18-1.079-.72-1.978-1.259-2.878-1.799-2.878-3.778-5.576-5.577-8.635-1.259-2.158-3.778-5.036-4.137-7.555-.18-.899 0-1.979.899-2.518.54-.36 1.259 0 1.799.36.54.359.899.899 1.439 1.439.9.899 2.159 1.619 3.598 1.799.899.179 1.799 0 2.518-.72.54-.54.54-1.259.54-2.159-.18-3.058-2.698-5.396-4.857-7.375-1.439-1.259-8.455-9.894-5.217-11.693 2.519-1.439 5.757 6.476 8.455 3.238.719-.899.719-2.158.18-3.238-.36-1.259-1.259-2.338-2.159-3.058-1.259-1.079-2.698-1.619-3.957-2.338-1.799-1.08-6.117-6.836-2.879-8.275 2.339-1.079 4.138 2.518 5.757 3.418.539.359 1.439.359 1.799 0v-.18c.18-.18.18-.54.18-.72.179-3.777-1.619-7.195-3.778-10.433-1.979-3.238-4.317-6.296-5.037-10.074-.18-.719-.18-1.259.18-1.799.18-.539.899-1.079 1.619-.899 1.079.18.36 2.158 1.259 2.878.9.72 2.339.54 3.238 0 1.439-.899 1.799-2.878 1.259-4.497-.539-1.619-1.619-2.878-2.518-4.318-3.058-4.317-5.037-9.354-6.116-14.391-1.08-5.036-.18-9.893-.36-14.93 0-1.259.18-8.095-1.979-7.915-2.158.18-2.338 5.936-2.338 7.375-.72 11.333-1.619 23.565-8.995 32.38-.899 1.079-1.978 2.338-2.158 3.778a3.65 3.65 0 001.799 3.597c1.259.72 2.878.36 3.957-.719.72-.72 1.439-2.519 2.698-1.259.54.539.54 1.259.72 1.978.36 4.677-1.979 9.175-4.317 13.132-2.519 3.958-5.397 7.735-6.836 12.232-.54 1.44-.72 2.879-.36 4.318.36 1.439 1.619 2.698 3.058 2.878 2.519.18 2.878-2.159 4.677-3.058.9-.54 2.159-.54 2.878.36.54.539.54 1.259.54 1.978-.18 3.418-3.238 5.937-5.756 8.455-2.878 2.878-5.217 6.476-6.656 10.254-.36 1.079-.72 2.338-.72 3.418 0 1.259.54 2.338 1.619 3.058 1.619 1.079 3.778.359 5.037-.9s2.159-3.058 3.058-4.677c.54-.899 1.26-1.799 2.159-2.159 4.137-.899 1.259 6.117.36 7.196-4.857 6.476-11.693 12.772-11.333 20.687 0 1.259.539 2.698 1.619 3.238 1.799.72 3.418-.899 4.497-2.518.72-.9 5.397-10.614 5.936-5.577.54 4.677-3.058 7.016-5.576 10.074-3.058 3.598-5.217 7.735-6.476 12.232-.54 1.979-.54 4.497 1.259 5.217 2.878 1.079 3.778-2.698 5.577-3.958 1.798-1.439 4.317-.719 4.677 1.619.359 1.439-.18 2.879-.9 4.138-3.058 5.217-9.174 8.454-11.333 14.211-.539 1.619-.719 3.598.72 4.677 2.158 1.619 4.317-1.259 5.936-2.518.54-.36 1.079-.9 1.619-.9.72 0 1.259.72 1.439 1.259.18.72 0 1.439-.18 2.159-1.799 5.936-7.015 8.455-10.433 13.132-1.619 1.979-2.519 4.497-3.058 7.015-.18 1.26-.18 2.519.18 3.778.539 1.079 1.619 2.159 2.878 2.159 1.619 0 2.698-1.619 3.418-3.058.539-1.439.899-3.059 1.978-4.318 1.44-1.439 4.318-1.259 4.498 1.08.18 1.799-2.699 4.137-3.598 5.576-3.598 5.577-7.016 11.153-10.254 16.91H155.962c-.179-3.238-3.417-6.656-6.116-9.355-4.137-4.317-7.195-9.714-8.814-15.47 1.979 2.518 4.137 4.677 6.656 6.476 1.799 1.259 3.777 1.079 4.497-1.259.36-1.08.18-1.979.18-3.058-.18-2.159-.54-4.497-1.439-6.476-1.619-3.598-4.677-6.116-7.016-9.175-2.518-2.878-4.497-6.835-3.778-10.613.18-.54.36-1.259.9-1.439.899-.36 1.979.36 2.338 1.079 1.08 1.799 1.08 3.238 3.418 2.519 1.619-.54 2.878-2.519 2.699-4.138 0-1.439-.72-2.698-1.44-3.777-3.597-6.296-10.793-11.873-9.713-19.968 0-.539.179-1.259.719-1.619 1.079-.899 2.698.36 3.418 1.439.719 1.26 1.979 2.699 3.418 2.159 1.259-.54 1.259-2.339.899-3.598-1.619-6.116-5.396-11.333-7.915-16.909-.719-1.439-1.259-3.058-1.079-4.677 0-.36.18-.54.36-.9.359-.539 1.439-.539 1.978 0 1.26 1.08 1.44 3.418 3.598 3.598 1.979.18 3.418-1.979 3.418-4.137-.18-1.979-1.439-3.778-2.518-5.397-7.915-12.412-7.736-28.962-12.593-42.633-.179-.54-.359-1.08-.899-1.439-.899-.72-2.339 0-2.698 1.079-.54 1.079-.36 2.159-.18 3.238 1.079 9.354-.72 18.888-2.339 28.242-.719 3.598-1.259 7.016-2.518 10.434-1.619 4.317-3.958 8.454-5.757 12.772-.899 2.158-1.079 5.396 1.08 6.116 2.698.899 4.857-3.598 7.735-3.418 4.857.18 1.079 6.656.18 8.455-2.159 4.317-5.577 8.275-5.757 13.311 0 .72 0 1.44.36 1.979 2.519 3.958 6.116-2.338 7.196-3.957.539-.72 1.619-1.26 2.338-.72.72.54.72 1.439.54 2.339-1.079 9.893-11.333 16.01-14.031 25.544-.36 1.259-.54 2.518 0 3.597 1.259 2.519 5.216 1.799 7.375-.179 1.439-1.44 2.339-3.239 3.778-4.678s4.137-2.158 3.418 1.08c-.18 1.079-1.08 1.978-1.799 2.878-2.159 2.518-4.497 4.857-6.836 7.195a34.14 34.14 0 00-3.598 3.598c-1.259 1.619-1.799 3.778-2.518 5.757-.54 1.799-1.08 3.957.36 5.216.899.72 2.158.72 3.238.36 1.079-.54 1.798-1.259 2.698-2.158 1.259-1.44 2.338-3.059 3.238-4.678.539-.359 1.439 0 1.619.54.36.54.18 1.259.18 1.979-.9 5.576-3.598 8.095-7.376 11.513-3.597 3.238-7.735 6.655-9.174 11.153H99.658c-.36-.54-.72-.9-1.08-1.26-3.238-3.777-7.195-8.095-6.296-13.131 3.418.359 4.318 6.116 7.735 5.936 2.519 0 3.418-3.418 2.879-5.756-1.08-5.217-5.397-8.815-8.635-12.772-1.439-1.979-2.878-3.958-3.418-6.297-.18-.539-.9-2.698-.54-3.238.9-1.259 2.16.36 2.519 1.08.72 1.079 1.44 2.338 2.159 3.418a6.197 6.197 0 002.158 2.158c.9.54 1.979.72 2.878.36 1.26-.54 1.799-1.979 1.979-3.418.18-2.158-.719-4.137-1.979-5.936-1.259-1.799-2.698-3.238-4.137-4.857a29.34 29.34 0 01-3.058-3.598c-1.08-1.259-5.397-9.534-2.159-10.613.72-.18 1.62.18 2.339.719.54.54 1.08 1.26 1.619 1.979 1.26 1.439 3.238 2.339 5.217 2.159.539 0 1.079-.18 1.439-.36.719-.54.899-1.259.899-2.159 0-2.518-1.439-4.677-2.878-6.835-1.62-2.159-2.698-4.498-4.138-6.836-1.618-2.698-3.417-4.857-3.777-8.095 2.878-2.698 5.756 6.116 9.534 4.857 2.698-.899 1.439-4.857-.18-7.196-3.598-5.396-5.936-11.332-7.375-17.628-.72-3.059-1.26-6.297-1.62-9.535-.18-1.259 0-8.094-2.878-6.296-.899.54-1.079 1.619-1.439 2.699-1.259 5.216-2.338 10.613-3.777 15.83-1.08 4.137-1.62 9.894-4.318 13.311-1.439 1.979-3.238 3.418-3.058 6.117 0 .18 0 .359.18.539.18.36.54.36.72.54 3.058 1.079 5.216-1.259 7.195-3.238.18-.18.54-.54.9-.719.36-.18.72-.18 1.079.179.72.72 0 2.699 0 3.598-.36 2.698-1.619 5.217-3.238 7.375-2.518 3.598-5.936 6.476-8.095 10.434-.36.72-.72 1.619-.72 2.518.18 1.799 1.8 2.699 3.418 2.699 2.16.18 3.238-1.439 4.138-3.238.54-1.259.9-2.519 2.158-3.058.36-.18.72-.18.9 0 0 .18 0 .18.18.359.18 2.519-.36 5.037-1.44 7.376-1.079 2.338-2.878 3.957-4.856 5.756-1.08.9-1.979 1.979-2.699 3.238-.54.9-.899 1.979-.72 2.878.18 1.08.72 1.979 1.62 2.339 1.26.54 2.878-.18 3.777-1.259.54-.54 3.238-5.037 4.318-3.238.36.539-.36 3.058-.54 3.777a52.288 52.288 0 01-2.159 7.016c-1.798 4.677-4.677 8.815-8.095 12.412-1.439 1.439-3.237 3.238-3.058 5.397.18 2.878 3.778 4.137 6.117 3.418 3.417-.9 3.238-4.497 5.756-6.296.18-.18.36-.18.54-.18.54 0 .54.719.54 1.259-.72 4.677-2.699 9.174-5.397 13.132H60.98c.54-.72.9-1.619.9-2.519.18-2.158-.72-4.137-1.978-5.936-1.26-1.799-2.699-3.238-4.138-4.857a29.284 29.284 0 01-3.058-3.598c-1.08-1.259-5.397-9.534-2.159-10.613.72-.18 1.62.18 2.339.72.54.539 1.08 1.259 1.619 1.978 1.26 1.439 3.238 2.339 5.217 2.159.54 0 1.079-.18 1.439-.36.72-.539.9-1.259.9-2.158 0-2.519-1.44-4.678-2.879-6.836-1.619-2.159-2.698-4.497-4.137-6.836-1.62-2.698-3.418-4.857-3.778-8.095 2.878-2.698 5.756 6.116 9.534 4.857 2.698-.899 1.44-4.857-.18-7.195-3.598-5.397-5.936-11.333-7.375-17.629-.72-3.058-1.26-6.296-1.62-9.534-.18-1.26 0-8.095-2.878-6.296-.899.539-1.079 1.619-1.439 2.698-1.259 5.217-2.338 10.613-3.777 15.83-1.08 4.137-1.62 9.894-4.318 13.312-1.439 1.978-3.238 3.417-3.058 6.116 0 .18 0 .36.18.539.18.36.54.36.72.54 3.058 1.079 5.217-1.259 7.195-3.238.18-.18.54-.54.9-.719.36-.18.72-.18 1.08.179.719.72 0 2.699 0 3.598-.36 2.698-1.62 5.217-3.239 7.376-2.518 3.597-5.936 6.476-8.095 10.433-.36.72-.72 1.619-.72 2.518.18 1.799 1.8 2.699 3.419 2.699 2.158.18 3.237-1.439 4.137-3.238.54-1.259.9-2.519 2.158-3.058.36-.18.72-.18.9 0 0 .18 0 .18.18.36.18 2.518-.36 5.036-1.44 7.375-1.079 2.338-2.877 3.957-4.856 5.756-1.08.9-1.979 1.979-2.699 3.238-.54.9-.899 1.979-.72 2.878.18 1.08.72 1.979 1.62 2.339 1.26.54 2.878-.18 3.778-1.259.54-.54 3.237-5.037 4.317-3.238.36.539-.36 3.058-.54 3.778-.36 1.978-.9 3.777-1.619 5.756H.9v300.23H1440V918.605l-43.89-5.396zM288.72 734.041c.719.539 1.439 1.259 2.158 1.978h-3.418c-.539-1.259-.899-3.418 1.26-1.978zm-16.91-4.857c0 2.338-.36 4.677-1.259 6.835h-2.698c.899-2.518 1.978-5.216 3.957-6.835zm-143.91 4.137c0 .899-.36 1.799-.54 2.698h-6.835c2.158-2.518 4.857-4.497 7.375-2.698zm-79.87-.18c-.18-.54-.9-2.698-.54-3.238.9-1.259 2.159.36 2.519 1.079.72 1.08 1.439 2.339 2.158 3.418.54.54.9 1.26 1.62 1.799h-4.498c-.54-1.079-1.08-2.158-1.259-3.058zm494.691 40.475h-3.418c1.079-.72 2.518-.9 3.418 0zm842.589 133.476c.18-.179.36-.18.54-.18.54 0 .54.72.54 1.26-.18 1.259-.54 2.518-.9 3.777l-3.23-.359c.9-1.439 1.44-3.238 3.05-4.498z" fill="#510130"/>
    <path d="M1297.17 968.074c5.4-6.296 10.61-12.772 13.49-20.687 2.34-6.476 2.88-13.671 1.44-20.507-.72-3.058-1.8-6.296-4.14-8.275-5.75 9.354-10.97 19.788-13.13 30.401-1.44-20.687-1.44-41.374-.36-62.061-4.5 20.867-5.04 42.633-1.8 63.86-.72-1.439-1.62-2.698-2.52-3.958-4.13-5.216-10.79-8.454-17.45-8.634 1.26 6.296 2.7 12.592 5.58 18.348 2.7 5.037 6.84 9.355 12.05 11.693h-60.26l-4.5-16.37h-12.59l-12.05-12.052h-38.14l-9.35 9.354h-14.03l-7.92 19.068h-50.91c-.36-1.439-.71-2.878-1.25-4.317-.18-.36-.36-.72-.72-1.079-1.26-.72-2.52 1.439-3.78 1.079.36-7.016-5.94-13.852-12.95-13.852-.72 6.297.72 12.593 3.77 18.169h-88.861l-21.586 7.375-23.565-7.375H625.829l-50.189-8.455H472.744l-13.311 8.275H329.914l16.729-19.428c-7.195 3.778-12.412 10.434-16.909 17.27 5.936-13.672 6.296-29.502 1.079-43.353-6.116 6.296-8.994 15.29-9.174 24.105 0 2.518 0 5.036.36 7.735-3.778-7.915-10.973-14.211-19.428-16.55-.36 7.016 1.079 14.391 5.037 20.327 2.878 4.498 7.195 8.095 12.052 10.074h-48.569l-7.376-34.538h-35.438v11.333h-32.379l-12.413 23.205H.899v152.006H1440V968.254h-142.83v-.18zm-2.52-1.799c.18.54.18 1.08.36 1.619h-1.44c.54-.18.9-.899 1.08-1.619z" fill="#2B102A"/>
    <path d="M25.724 202.293c25.544-4.138 74.474 8.275 90.484-16.19 2.518-3.958 3.957-8.275 5.216-12.772a3515.91 3515.91 0 006.476-22.306c5.937-20.507 14.211-43.353 35.078-52.347 48.39-20.507 79.511 26.983 94.981 59.902 1.979 4.318 4.497 8.995 9.174 10.973 10.614 4.138 18.529-8.454 27.163-15.29 12.772-9.894 35.438-5.577 43.173 8.455 3.238 5.756 5.217 13.491 11.873 15.11 8.275 1.979 13.851-7.015 21.227-11.153 15.11-8.275 32.559 6.296 46.77 16.19 34.539 23.565 81.13 21.407 123.583 18.169 5.397 3.238-1.799 10.073-8.095 11.692-76.992 18.889-157.761 21.047-237.631 23.206-85.807 2.338-171.973 4.497-257.24-5.037-7.375-.899-14.93-1.979-20.687-6.116-5.756-4.317-8.454-12.772-3.597-17.989 3.238-2.878 7.735-3.778 12.052-4.497z" fill="url(#paint2_linear)"/>
    <path d="M376.325 420.317s1.259-5.577 0-6.296c-1.259-.72-18.349-9.354-22.846-8.635-4.497.72-1.799 2.878 0 4.138 1.799 1.259 3.598 4.137 4.317 5.936.72 1.799 1.979 8.994 4.138 9.714 0 0-15.83 6.656-17.089 8.275-1.26 1.619 9.713-2.699 9.713-2.699s12.772 1.259 16.37-.539c3.598-1.799 9.174-6.476 11.153-8.635 1.619-1.619 4.138-.18 4.138-.18s-3.598-5.576-9.894-1.079zM242.848 446.4s1.259-5.576 0-6.296c-1.259-.899-18.349-9.354-22.846-8.634-4.497.719-1.799 2.878 0 4.137 1.799 1.259 3.598 4.138 4.317 5.936.72 1.799 1.979 8.995 4.138 9.714 0 0-15.83 6.656-17.09 8.275-1.259 1.619 9.714-2.698 9.714-2.698s12.772 1.259 16.37-.54c3.598-1.799 9.174-6.476 11.153-8.634 1.619-1.619 4.138-.18 4.138-.18s-3.598-5.577-9.894-1.08zM141.751 441.364s4.677-3.418 4.317-6.297c-.179-2.878-3.058-13.491-5.756-14.211-2.518-.719 0 5.397 0 5.397s-5.936-4.137-5.936-2.159c0 2.159 1.799 4.677 1.799 4.677s-8.815-2.338-8.455-1.259c.18 1.08 3.058 3.418 3.058 3.418s-7.555 1.259-7.195 3.238c.179 2.159 2.338 1.619 2.338 1.619s-.54 7.196 1.799 9.534c0 0-17.629 5.756-18.708 7.555-1.08 1.799 12.592-2.878 12.592-2.878s11.333 1.799 15.47.72c4.138-1.08 11.333-5.937 13.492-5.937 2.158 0 5.396-.179 5.396-.179s-3.957-5.577-14.211-3.238zM492.532 358.615s4.677-3.418 4.317-6.296c-.18-2.878-3.058-13.491-5.756-14.211-2.519-.72 0 5.397 0 5.397s-5.936-4.138-5.936-2.159 1.798 4.677 1.798 4.677-8.814-2.338-8.454-1.259c.18 1.079 3.058 3.418 3.058 3.418s-7.555 1.259-7.196 3.238c.36 1.978 2.339 1.619 2.339 1.619s-.54 7.195 1.799 9.534c0 0-17.629 5.756-18.709 7.555-1.079 1.799 12.593-2.878 12.593-2.878s11.332 1.799 15.47.719c4.137-1.079 11.333-5.936 13.491-5.936 2.159 0 5.397-.18 5.397-.18s-3.958-5.576-14.211-3.238zM575.28 477.341s4.677-3.418 4.318-6.296c-.18-2.878-3.059-13.492-5.757-14.211-2.518-.72 0 5.397 0 5.397s-5.936-4.138-5.936-2.159 1.799 4.677 1.799 4.677-8.815-2.339-8.455-1.259c.18 1.079 3.058 3.418 3.058 3.418s-7.555 1.259-7.195 3.238c.359 1.978 2.338 1.619 2.338 1.619s-.54 7.195 1.799 9.534c0 0-17.629 5.756-18.708 7.555-1.08 1.799 12.592-2.878 12.592-2.878s11.333 1.799 15.47.719c4.138-1.079 11.333-5.936 13.492-5.936 2.158 0 5.396-.18 5.396-.18s-3.777-5.576-14.211-3.238zM395.393 517.456s4.677-3.418 4.317-6.296c-.18-2.878-3.058-13.492-5.756-14.211-2.519-.72 0 5.396 0 5.396s-5.937-4.137-5.937-2.158c0 1.979 1.799 4.677 1.799 4.677s-8.814-2.339-8.454-1.259c.179 1.079 3.058 3.418 3.058 3.418s-7.556 1.259-7.196 3.238c.18 2.158 2.339 1.619 2.339 1.619s-.54 7.195 1.799 9.534c0 0-17.629 5.756-18.709 7.555-1.079 1.799 12.592-2.878 12.592-2.878s11.333 1.798 15.471.719c4.137-1.079 11.333-5.936 13.491-5.936 2.159 0 5.397-.18 5.397-.18s-3.958-5.576-14.211-3.238zM492.532 571.782s4.677-3.418 4.317-6.296c-.18-2.878-3.058-13.492-5.756-14.211-2.519-.72 0 5.396 0 5.396s-5.936-4.137-5.936-2.158c0 1.979 1.798 4.677 1.798 4.677s-8.814-2.339-8.454-1.259c.18 1.079 3.058 3.418 3.058 3.418s-7.555 1.259-7.196 3.237c.36 1.979 2.339 1.619 2.339 1.619s-.54 7.196 1.799 9.535c0 0-17.629 5.756-18.709 7.555-1.079 1.799 12.593-2.878 12.593-2.878s11.332 1.798 15.47.719c4.137-1.079 11.333-5.936 13.491-5.936 2.159 0 5.397-.18 5.397-.18s-3.958-5.577-14.211-3.238zM313.544 484.537s-.72-2.699-5.037-3.958c-4.317-1.079-6.656.36-6.656.36s-3.238-1.979-7.015-2.159c-3.778 0-21.767 1.439-24.465 2.519-2.698 1.259 7.375.18 9.354.539 1.979.36 4.317 0 5.576.36 1.26.36 4.498 4.138 5.037 5.577.54 1.439 2.519-.18 2.519-.18s-2.519 9.534 14.391 13.132c0 0 1.439-10.074-.72-15.291-.18.36 4.497-2.338 7.016-.899z" fill="#510130"/>
    <path d="M284.222 480.939s1.799 1.979 1.619 3.418c-.179 1.439-1.079 15.83 3.778 20.867l1.439-1.439s-.719 2.698.54 3.238c1.079.539 1.619-1.619 1.619-1.619s1.079 3.238 1.619 3.417c.539.18.719-2.518.719-2.518s.9 2.698 1.619 3.238c.72.54 2.699-16.19 2.699-16.19l-15.651-12.412zM499.188 440.644s-.72-2.698-5.037-3.957c-4.318-1.08-6.656.359-6.656.359s-3.238-1.978-7.016-2.158c-3.777 0-21.766 1.439-24.464 2.518-2.699 1.259 7.375.18 9.354.54 1.979.36 4.317 0 5.576.36 1.259.359 4.497 4.137 5.037 5.576.72 1.439 2.519-.18 2.519-.18s-2.519 9.534 14.391 13.132c0 0 1.439-10.074-.72-15.29-.18.179 4.677-2.339 7.016-.9z" fill="#510130"/>
    <path d="M469.866 437.046s1.799 1.979 1.619 3.418c-.18 1.439-1.079 15.83 3.778 20.867l1.439-1.439s-.72 2.698.54 3.238c1.079.54 1.619-1.619 1.619-1.619s1.079 3.238 1.619 3.418c.539.18.719-2.519.719-2.519s.9 2.699 1.619 3.238c.72.54 2.698-16.19 2.698-16.19l-15.65-12.412z" fill="#510130"/>
  </g>
  <defs>
    <linearGradient id="paint0_linear" x1="1125.56" y1="288.819" x2="1125.56" y2="105.299" gradientUnits="userSpaceOnUse">
      <stop stop-color="#fff" stop-opacity="0"/>
      <stop offset="1" stop-color="#fff"/>
    </linearGradient>
    <linearGradient id="paint1_linear" x1="754.956" y1="348.889" x2="754.956" y2="-44.908" gradientUnits="userSpaceOnUse">
      <stop stop-color="#fff" stop-opacity="0"/>
      <stop offset="1" stop-color="#fff"/>
    </linearGradient>
    <linearGradient id="paint2_linear" x1="277.611" y1="251.538" x2="278.584" y2="107.266" gradientUnits="userSpaceOnUse">
      <stop stop-color="#fff" stop-opacity="0"/>
      <stop offset="1" stop-color="#fff"/>
    </linearGradient>
    <clipPath id="clip0">
      <path fill="#fff" transform="translate(0 -321)" d="M0 0h1440v1441.08H0z"/>
    </clipPath>
  </defs>
</svg>
