<!DOCTYPE svg PUBLIC "-//W3C//DTD SVG 20010904//EN" "http://www.w3.org/TR/2001/REC-SVG-20010904/DTD/svg10.dtd">
<svg version="1.0" xmlns="http://www.w3.org/2000/svg" width="503px" height="474px" viewBox="0 0 5030 4740" preserveAspectRatio="xMidYMid meet">
<g id="layer101" fill="#a31418" stroke="none">
<path d="M1730 3945 l-776 -775 456 -455 455 -455 3 -141 4 -140 -38 -55 c-29 -41 -38 -67 -42 -107 l-4 -53 -57 -12 c-313 -66 -646 -385 -694 -665 -9 -56 -8 -71 7 -111 25 -65 65 -85 140 -69 59 13 96 30 357 166 102 53 193 97 202 97 9 0 19 -6 24 -12 4 -7 10 -133 13 -279 l5 -266 52 -104 c83 -165 246 -368 366 -456 62 -46 100 -47 183 -8 76 37 169 38 234 5 43 -22 92 -33 142 -33 86 0 332 275 441 492 l52 104 5 266 c3 146 9 272 13 279 5 6 15 12 24 12 9 0 100 -44 202 -97 261 -136 298 -153 357 -166 75 -16 115 4 140 69 15 40 16 55 7 111 -48 280 -381 599 -694 665 l-57 12 -4 53 c-4 40 -13 66 -42 107 l-38 55 4 140 3 141 458 458 459 459 -40 31 c-22 18 -44 32 -48 32 -5 0 -342 333 -749 740 -407 407 -742 740 -745 740 -3 0 -354 -349 -780 -775z"/>
</g>
<g id="layer102" fill="#cf371f" stroke="none">
<path d="M2416 2710 c-69 -18 -156 -71 -199 -123 -23 -28 -111 -121 -194 -206 l-153 -157 0 -124 0 -124 -36 -51 c-42 -61 -56 -139 -53 -295 1 -52 -2 -95 -7 -95 -30 -1 -34 -19 -34 -150 l0 -133 80 34 c45 18 112 43 150 55 l69 21 -25 45 c-13 25 -24 54 -24 64 0 17 6 15 49 -11 40 -25 59 -30 110 -30 35 0 74 6 91 15 18 9 31 11 35 5 11 -18 106 -12 120 7 11 15 15 15 29 4 9 -7 13 -17 10 -22 -3 -5 35 -9 85 -9 84 0 90 1 86 20 -5 28 11 34 33 12 16 -16 41 -20 166 -26 l146 -8 50 31 c44 27 50 29 50 12 0 -10 -11 -39 -24 -64 l-25 -45 69 -21 c38 -12 105 -37 150 -55 l80 -34 0 133 c0 131 -4 149 -34 150 -5 0 -8 43 -7 95 3 156 -11 234 -53 295 l-36 51 0 124 0 124 -152 157 c-84 85 -172 179 -196 207 -31 37 -64 62 -117 88 -65 32 -84 37 -162 40 -48 2 -105 -1 -127 -6z m264 -225 c0 -16 -31 -63 -45 -69 -9 -3 -61 -6 -115 -6 -54 0 -106 3 -115 6 -14 6 -45 53 -45 69 0 3 72 5 160 5 88 0 160 -2 160 -5z m-541 -295 c10 -30 23 -54 29 -53 6 2 10 -6 9 -17 -2 -27 -29 -25 -61 5 -48 44 -57 94 -29 153 l17 36 9 -34 c4 -19 16 -60 26 -90z m826 62 c17 -56 -37 -152 -85 -152 -18 0 -18 3 6 49 19 40 44 128 44 160 0 11 27 -34 35 -57z m-145 -42 c0 -5 -11 -10 -24 -10 -14 0 -27 -4 -31 -9 -3 -6 -108 -10 -245 -10 -137 0 -242 4 -245 10 -4 5 -17 9 -31 9 -13 0 -24 5 -24 10 0 6 107 10 300 10 193 0 300 -4 300 -10z m-566 -666 c9 -8 16 -24 16 -34 0 -10 3 -20 8 -23 4 -2 1 -2 -6 0 -8 1 -33 3 -57 3 -49 0 -62 16 -39 49 18 25 56 27 78 5z m610 -5 c23 -34 10 -49 -45 -49 -42 0 -49 3 -49 19 0 47 67 69 94 30z"/>
<path d="M1789 1191 c-34 -15 -36 -18 -23 -36 8 -10 14 -27 14 -37 0 -10 3 -18 8 -18 4 0 45 -7 92 -15 407 -69 896 -67 1316 6 49 8 64 15 64 28 0 9 6 26 14 37 13 18 11 21 -31 38 -45 19 -48 19 -227 -5 -160 -21 -219 -24 -506 -24 -280 1 -347 4 -481 23 -183 26 -192 26 -240 3z"/>
</g>
<g id="layer103" fill="#f05b22" stroke="none">
<path d="M1750 3965 c-725 -726 -754 -757 -735 -772 11 -8 45 -27 75 -42 49 -23 69 -26 190 -29 l134 -4 65 -60 c108 -99 254 -186 404 -243 l62 -23 5 -166 5 -166 180 180 180 180 205 0 205 0 180 -180 180 -180 5 166 5 166 62 23 c150 57 296 144 404 243 l65 60 135 3 c133 4 138 5 205 39 73 37 84 57 45 77 -14 6 -356 343 -760 747 -405 405 -738 736 -741 736 -3 0 -345 -340 -760 -755z"/>
<path d="M2416 2710 c-69 -18 -156 -71 -199 -123 -23 -28 -111 -121 -194 -206 l-153 -157 0 -124 0 -124 -36 -51 c-42 -61 -56 -139 -53 -295 1 -52 -2 -95 -7 -95 -30 -1 -34 -19 -34 -150 l0 -133 80 34 c45 18 112 43 150 55 l69 21 -25 45 c-13 25 -24 54 -24 64 0 17 6 15 49 -11 40 -25 59 -30 110 -30 35 0 74 6 91 15 18 9 31 11 35 5 3 -6 28 -10 56 -10 36 0 54 5 69 20 24 24 41 19 35 -10 -4 -19 2 -20 85 -20 83 0 89 1 85 20 -5 28 11 34 33 12 16 -16 41 -20 166 -26 l146 -8 50 31 c44 27 50 29 50 12 0 -10 -11 -39 -24 -64 l-25 -45 69 -21 c38 -12 105 -37 150 -55 l80 -34 0 133 c0 131 -4 149 -34 150 -5 0 -8 43 -7 95 3 156 -11 234 -53 295 l-36 51 0 124 0 124 -152 157 c-84 85 -172 179 -196 207 -31 37 -64 62 -117 88 -65 32 -84 37 -162 40 -48 2 -105 -1 -127 -6z m264 -225 c0 -16 -31 -63 -45 -69 -9 -3 -61 -6 -115 -6 -54 0 -106 3 -115 6 -14 6 -45 53 -45 69 0 3 72 5 160 5 88 0 160 -2 160 -5z m-541 -295 c10 -30 23 -54 29 -53 6 2 10 -6 9 -17 -2 -27 -29 -25 -61 5 -48 44 -57 94 -29 153 l17 36 9 -34 c4 -19 16 -60 26 -90z m826 62 c17 -56 -37 -152 -85 -152 -18 0 -18 3 6 49 19 40 44 128 44 160 0 11 27 -34 35 -57z m-145 -42 c0 -5 -11 -10 -24 -10 -14 0 -27 -4 -31 -9 -3 -6 -108 -10 -245 -10 -137 0 -242 4 -245 10 -4 5 -17 9 -31 9 -13 0 -24 5 -24 10 0 6 107 10 300 10 193 0 300 -4 300 -10z m-211 -221 c25 -11 52 -17 60 -13 23 10 61 14 59 6 -1 -4 2 -18 6 -32 9 -34 -5 -70 -47 -117 -26 -28 -45 -71 -77 -168 -23 -71 -47 -136 -53 -142 -5 -7 -22 -13 -37 -13 -15 0 -32 6 -37 13 -6 6 -30 71 -53 142 -32 97 -51 140 -77 168 -42 47 -56 83 -47 117 4 14 7 28 6 32 -2 8 36 4 59 -6 8 -4 35 2 60 13 24 12 64 21 89 21 25 0 65 -9 89 -21z m-355 -445 c9 -8 16 -24 16 -34 0 -10 3 -20 8 -23 4 -2 1 -2 -6 0 -8 1 -33 3 -57 3 -49 0 -62 16 -39 49 18 25 56 27 78 5z m610 -5 c23 -34 10 -49 -45 -49 -42 0 -49 3 -49 19 0 47 67 69 94 30z"/>
<path d="M1844 1159 c-3 -6 -2 -15 4 -21 13 -13 32 -2 32 18 0 16 -26 19 -36 3z"/>
<path d="M3162 1153 c2 -10 10 -18 18 -18 22 0 18 29 -3 33 -14 3 -18 -1 -15 -15z"/>
<path d="M1972 1133 c4 -21 33 -25 33 -3 0 8 -8 16 -18 18 -14 3 -18 -1 -15 -15z"/>
<path d="M2474 1113 c-5 -28 -3 -39 10 -49 13 -9 14 -13 4 -17 -7 -3 7 -5 32 -5 25 0 39 2 32 5 -10 4 -9 8 4 17 13 10 15 21 10 49 -7 37 -28 50 -40 25 -5 -10 -7 -10 -12 0 -12 25 -33 12 -40 -25z"/>
<path d="M3034 1139 c-8 -14 11 -33 25 -25 16 10 13 36 -3 36 -8 0 -18 -5 -22 -11z"/>
<path d="M2096 1121 c-7 -11 18 -33 27 -24 4 3 7 12 7 20 0 15 -26 18 -34 4z"/>
<path d="M2910 1116 c0 -8 4 -17 9 -20 11 -7 33 18 24 27 -12 12 -33 7 -33 -7z"/>
<path d="M2220 1107 c0 -19 10 -27 26 -20 21 8 17 33 -6 33 -11 0 -20 -6 -20 -13z"/>
<path d="M2350 1104 c-9 -10 -10 -18 -2 -26 12 -12 32 -2 32 17 0 21 -16 26 -30 9z"/>
<path d="M2664 1106 c-9 -24 12 -44 28 -28 10 10 8 16 -5 29 -15 15 -17 15 -23 -1z"/>
<path d="M2780 1106 c0 -15 24 -28 34 -19 13 14 5 33 -14 33 -11 0 -20 -6 -20 -14z"/>
</g>
<g id="layer104" fill="#fbb04c" stroke="none">
<path d="M1750 3965 c-725 -726 -754 -757 -735 -772 11 -8 45 -27 75 -42 49 -23 69 -26 190 -29 l134 -4 65 -60 c108 -99 254 -186 404 -243 l62 -23 5 -166 5 -166 180 180 180 180 205 0 205 0 180 -180 180 -180 5 166 5 166 62 23 c150 57 296 144 404 243 l65 60 135 3 c133 4 138 5 205 39 73 37 84 57 45 77 -14 6 -356 343 -760 747 -405 405 -738 736 -741 736 -3 0 -345 -340 -760 -755z m1479 -234 c75 -54 92 -163 36 -237 -94 -124 -295 -57 -295 98 0 72 38 131 100 157 40 17 123 8 159 -18z m-630 -746 c11 -9 24 -30 30 -46 l10 -29 -119 0 -120 0 11 27 c13 35 28 53 54 64 31 14 113 4 134 -16z"/>
<path d="M3196 3645 c-6 -30 -3 -39 16 -55 31 -26 38 -25 38 5 0 29 -26 85 -39 85 -5 0 -12 -16 -15 -35z"/>
<path d="M3030 3541 c0 -13 59 -61 76 -61 17 0 17 10 4 44 -8 21 -16 26 -45 26 -19 0 -35 -4 -35 -9z"/>
<path d="M3153 3515 c-10 -31 -9 -35 7 -35 20 0 80 46 80 61 0 5 -17 9 -38 9 -35 0 -40 -3 -49 -35z"/>
<path d="M2310 2359 c-41 -9 -86 -57 -92 -100 -3 -16 -2 -31 0 -34 3 -3 140 -5 304 -5 l298 0 0 34 c0 45 -54 105 -96 107 -50 2 -68 -2 -95 -21 -21 -15 -41 -17 -112 -15 -48 1 -93 7 -101 14 -23 19 -69 28 -106 20z"/>
<path d="M2074 2152 c3 -5 -24 -37 -59 -72 l-65 -64 0 -331 c0 -251 -3 -334 -12 -344 -11 -10 -10 -11 2 -7 8 3 34 10 57 16 l42 11 -24 46 c-28 52 -32 83 -10 83 8 0 15 -4 15 -10 0 -5 5 -10 11 -10 5 0 7 5 4 10 -4 6 20 10 65 10 57 0 71 3 67 14 -7 18 17 52 42 59 24 6 61 -26 61 -54 0 -11 6 -19 13 -18 6 1 45 1 86 0 l73 -1 -4 -30 -5 -30 87 0 87 0 -5 31 -5 31 87 -3 c83 -4 86 -3 86 18 0 29 36 62 61 56 25 -7 49 -41 42 -59 -4 -11 10 -14 67 -14 45 0 69 -4 65 -10 -3 -5 -1 -10 4 -10 6 0 11 5 11 10 0 6 7 10 15 10 22 0 18 -31 -10 -83 l-24 -46 42 -11 c23 -6 49 -13 57 -16 12 -4 13 -3 3 7 -10 10 -13 93 -13 344 l0 331 -65 64 c-35 35 -62 67 -59 72 10 15 -2 8 -36 -22 -18 -16 -41 -30 -51 -30 -10 0 -38 -22 -63 -48 -26 -27 -57 -55 -71 -62 -20 -11 -22 -16 -14 -32 16 -29 1 -72 -40 -120 -30 -34 -47 -71 -81 -173 -23 -71 -47 -136 -53 -142 -5 -7 -22 -13 -37 -13 -15 0 -32 6 -37 13 -6 6 -30 71 -53 142 -34 102 -51 139 -81 173 -42 48 -56 91 -39 121 6 12 7 21 1 21 -5 0 -39 27 -75 60 -37 33 -72 60 -79 60 -8 0 -29 14 -47 30 -34 30 -46 37 -36 22z m233 -457 c101 -51 94 -55 -88 -55 l-164 0 26 26 c56 56 148 68 226 29z m576 14 c21 -5 52 -23 70 -39 l32 -29 -164 -1 c-182 0 -189 4 -88 55 55 27 91 31 150 14z"/>
<path d="M1827 1913 c-33 -48 -46 -125 -47 -268 l0 -90 63 63 62 62 0 80 c-1 67 -4 83 -22 102 -12 13 -23 39 -25 58 l-3 35 -28 -42z"/>
<path d="M3180 1919 c0 -20 -9 -42 -22 -57 -20 -20 -23 -34 -23 -103 l0 -79 64 -63 63 -62 -5 143 c-5 118 -10 151 -27 187 -12 24 -28 49 -36 55 -12 11 -14 7 -14 -21z"/>
</g>
<g id="layer105" fill="#fed87c" stroke="none">
<path d="M1750 3965 c-725 -726 -754 -757 -735 -772 11 -8 45 -27 75 -42 50 -23 69 -26 195 -29 90 -3 143 -8 147 -15 5 -9 10 -9 20 1 16 16 31 16 22 0 -6 -10 -4 -10 7 0 10 9 107 12 414 12 381 0 402 1 433 20 39 24 72 75 72 113 l0 27 114 0 114 0 7 -28 c9 -43 42 -90 77 -112 31 -19 52 -20 434 -20 306 0 403 -3 413 -12 10 -9 12 -9 7 -1 -4 7 1 11 13 10 11 0 17 -5 15 -9 -7 -11 10 -10 22 1 5 5 70 11 145 13 133 3 138 4 205 38 73 37 84 57 45 77 -14 6 -356 343 -760 747 -405 405 -738 736 -741 736 -3 0 -345 -340 -760 -755z m1481 -188 c80 -42 123 -137 105 -232 -4 -22 -11 -33 -18 -29 -6 4 -9 1 -6 -7 6 -16 -28 -69 -44 -69 -6 0 -6 6 2 15 10 12 10 15 -4 15 -9 0 -15 -6 -13 -12 1 -7 -4 -12 -11 -10 -8 1 -11 -2 -7 -8 3 -6 11 -8 16 -5 5 4 9 2 9 -3 0 -17 -78 -42 -129 -42 -81 0 -136 33 -186 112 -25 40 -24 132 3 185 22 43 68 84 112 102 46 18 124 13 171 -12z"/>
<path d="M3091 3701 c-12 -8 -11 -13 10 -30 30 -25 31 -25 63 0 21 17 25 24 14 30 -17 11 -69 11 -87 0z"/>
<path d="M3036 3658 c-10 -15 -16 -40 -14 -59 l3 -33 28 25 c28 24 28 26 15 59 l-14 35 -18 -27z"/>
<path d="M3201 3657 c-16 -40 -15 -43 19 -67 28 -20 30 -20 30 -3 0 10 -9 36 -19 58 l-19 40 -11 -28z"/>
<path d="M3040 3530 c10 -19 68 -55 76 -47 2 2 -1 18 -7 35 -9 28 -16 32 -45 32 -32 0 -34 -2 -24 -20z"/>
<path d="M3160 3524 c-6 -14 -10 -29 -10 -34 0 -16 38 2 66 31 l28 29 -37 0 c-31 0 -39 -4 -47 -26z"/>
<path d="M2310 2359 c-46 -10 -90 -62 -90 -106 0 -45 21 -43 69 7 l38 40 190 0 c176 0 192 -1 216 -20 17 -14 24 -26 20 -37 -4 -10 -2 -14 5 -9 6 3 13 2 17 -4 3 -5 15 -10 26 -10 34 0 25 62 -15 104 -43 47 -106 53 -158 15 -36 -25 -182 -28 -208 -4 -25 23 -70 33 -110 24z"/>
<path d="M2095 2123 c10 -19 15 -60 15 -122 l0 -94 -39 -34 c-65 -55 -80 -99 -81 -238 -1 -66 -1 -126 -1 -132 1 -9 21 -13 66 -13 58 0 65 2 65 20 0 11 4 20 10 20 5 0 7 -8 4 -17 -3 -10 3 -6 12 10 10 15 23 27 29 27 5 0 4 4 -3 8 -23 15 -2 42 30 40 23 -2 34 -11 49 -40 10 -20 19 -44 19 -53 0 -9 6 -15 13 -14 6 1 45 1 86 0 l73 -1 -4 -30 -5 -30 87 0 87 0 -5 30 -4 30 66 0 c65 0 66 0 66 28 0 20 3 23 9 12 6 -8 7 -18 4 -24 -3 -5 -1 -6 5 -2 6 4 9 13 5 21 -3 8 0 15 7 15 6 0 8 5 5 10 -4 6 -12 7 -18 4 -7 -4 -8 -3 -4 2 5 5 18 9 30 9 11 0 22 6 25 14 3 8 0 11 -7 7 -6 -4 -11 -3 -11 1 0 5 20 9 44 10 36 1 45 -2 49 -18 3 -10 1 -19 -4 -19 -5 0 -1 -9 8 -19 9 -11 20 -18 24 -15 4 2 5 -5 2 -16 -5 -19 0 -20 71 -20 54 0 76 4 77 13 0 6 0 66 -1 132 -1 139 -16 183 -81 238 l-39 34 0 94 c0 62 5 103 15 122 l14 27 -33 -25 c-18 -14 -39 -25 -46 -25 -7 0 -41 -27 -77 -60 -35 -33 -68 -60 -74 -60 -6 0 -6 -8 1 -21 17 -30 3 -73 -39 -121 -30 -34 -47 -71 -81 -173 -23 -71 -47 -136 -53 -142 -5 -7 -22 -13 -37 -13 -15 0 -32 6 -37 13 -6 6 -30 71 -53 142 -34 102 -51 139 -81 173 -42 48 -56 91 -39 121 6 12 7 21 1 21 -5 0 -39 27 -75 60 -37 33 -72 60 -78 60 -6 0 -26 11 -44 25 l-33 25 14 -27z m212 -428 c101 -51 94 -55 -88 -55 l-164 0 26 26 c56 56 148 68 226 29z m576 14 c21 -5 52 -23 70 -39 l32 -29 -164 -1 c-182 0 -189 4 -88 55 55 27 91 31 150 14z m-732 -162 c-13 -13 -26 -3 -16 12 3 6 11 8 17 5 6 -4 6 -10 -1 -17z m756 -3 c-9 -9 -28 6 -21 18 4 6 10 6 17 -1 6 -6 8 -13 4 -17z"/>
<path d="M1827 1913 c-33 -48 -46 -125 -47 -268 l0 -90 59 60 c34 35 55 63 48 67 -5 3 -16 4 -23 1 -15 -5 -44 46 -44 77 0 28 26 77 47 89 13 7 14 12 6 23 -6 7 -13 29 -15 48 l-3 35 -28 -42z"/>
<path d="M3180 1918 c0 -19 -6 -40 -12 -47 -11 -10 -10 -14 5 -22 21 -12 47 -61 47 -89 0 -31 -29 -82 -44 -77 -7 3 -18 2 -23 -1 -6 -4 14 -32 49 -67 l60 -60 -5 143 c-5 118 -10 151 -27 187 -12 24 -28 49 -36 55 -12 11 -14 7 -14 -22z"/>
<path d="M1876 1798 c-21 -30 -20 -51 4 -79 l19 -24 1 63 c0 34 -2 62 -4 62 -3 0 -12 -10 -20 -22z"/>
<path d="M3141 1760 l0 -65 19 24 c11 13 20 31 20 41 0 10 -9 28 -20 41 l-19 24 0 -65z"/>
</g>


</svg>