<svg width="339" height="196" fill="none" xmlns="http://www.w3.org/2000/svg">
  <g filter="url(#filter0_d)" fill="#FFF5EE">
    <path d="M64.998 142H48.142l-22.446-33.884V142H8.84V81.37h16.856l22.446 34.314V81.37h16.856V142zM103.668 142.602c-5.676 0-10.893-1.319-15.652-3.956-4.759-2.695-8.543-6.393-11.352-11.094-2.752-4.759-4.128-10.119-4.128-16.082 0-5.963 1.376-11.295 4.128-15.996 2.81-4.759 6.593-8.457 11.352-11.094 4.759-2.637 9.976-3.956 15.652-3.956 5.734 0 10.951 1.319 15.652 3.956 4.759 2.637 8.514 6.335 11.266 11.094 2.752 4.701 4.128 10.033 4.128 15.996 0 5.963-1.376 11.323-4.128 16.082-2.752 4.701-6.507 8.399-11.266 11.094-4.758 2.637-9.976 3.956-15.652 3.956zm0-15.652c4.3 0 7.683-1.405 10.148-4.214 2.523-2.809 3.784-6.565 3.784-11.266 0-4.816-1.261-8.6-3.784-11.352-2.465-2.81-5.848-4.214-10.148-4.214-4.357 0-7.769 1.405-10.234 4.214-2.465 2.752-3.698 6.536-3.698 11.352 0 4.759 1.233 8.543 3.698 11.352 2.466 2.752 5.877 4.128 10.234 4.128zM172.994 142l-12.04-22.36h-1.806V142h-16.856V81.37h26.574c4.873 0 9.001.86 12.384 2.58 3.382 1.663 5.934 3.985 7.654 6.966 1.72 2.924 2.58 6.22 2.58 9.89 0 4.128-1.147 7.769-3.44 10.922-2.236 3.096-5.533 5.303-9.89 6.622L191.828 142h-18.834zm-13.846-33.884h8.342c2.293 0 4.013-.545 5.16-1.634 1.146-1.089 1.72-2.666 1.72-4.73 0-1.95-.602-3.469-1.806-4.558-1.147-1.147-2.838-1.72-5.074-1.72h-8.342v12.642zM229.851 142l-12.04-22.36h-1.806V142h-16.856V81.37h26.574c4.873 0 9.001.86 12.384 2.58 3.383 1.663 5.934 3.985 7.654 6.966 1.72 2.924 2.58 6.22 2.58 9.89 0 4.128-1.147 7.769-3.44 10.922-2.236 3.096-5.533 5.303-9.89 6.622L248.685 142h-18.834zm-13.846-33.884h8.342c2.293 0 4.013-.545 5.16-1.634 1.147-1.089 1.72-2.666 1.72-4.73 0-1.95-.602-3.469-1.806-4.558-1.147-1.147-2.838-1.72-5.074-1.72h-8.342v12.642zM272.862 81.37V142h-16.856V81.37h16.856zM305.338 142.602c-7.052 0-12.843-1.663-17.372-4.988-4.53-3.383-6.966-8.199-7.31-14.448h17.974c.172 2.121.802 3.669 1.892 4.644 1.089.975 2.494 1.462 4.214 1.462 1.548 0 2.809-.373 3.784-1.118 1.032-.803 1.548-1.892 1.548-3.268 0-1.777-.832-3.153-2.494-4.128-1.663-.975-4.358-2.064-8.084-3.268-3.956-1.319-7.167-2.58-9.632-3.784-2.408-1.261-4.53-3.067-6.365-5.418-1.777-2.408-2.665-5.533-2.665-9.374 0-3.899.974-7.224 2.923-9.976 1.95-2.81 4.645-4.93 8.085-6.364 3.44-1.433 7.338-2.15 11.696-2.15 7.052 0 12.67 1.663 16.856 4.988 4.242 3.268 6.507 7.883 6.794 13.846h-18.319c-.057-1.835-.63-3.21-1.719-4.128-1.032-.917-2.38-1.376-4.042-1.376-1.262 0-2.294.373-3.096 1.118-.803.745-1.204 1.806-1.204 3.182 0 1.147.43 2.15 1.29 3.01.917.803 2.035 1.519 3.353 2.15 1.319.573 3.269 1.319 5.849 2.236 3.841 1.319 6.994 2.637 9.46 3.956 2.522 1.261 4.672 3.067 6.45 5.418 1.834 2.293 2.752 5.217 2.752 8.772 0 3.612-.918 6.851-2.752 9.718-1.778 2.867-4.386 5.131-7.826 6.794-3.383 1.663-7.396 2.494-12.04 2.494zM25.568 159.62v5.616H15.416v4.464h7.488v5.364h-7.488V185H8.36v-25.38h17.208zM44.595 180.86h-9L34.227 185h-7.416l9.252-25.38H44.2L53.415 185h-7.452l-1.368-4.14zm-1.764-5.4l-2.736-8.208-2.7 8.208h5.436zM54.851 172.256c0-2.496.516-4.716 1.548-6.66 1.056-1.968 2.544-3.492 4.464-4.572 1.92-1.104 4.128-1.656 6.624-1.656 3.168 0 5.832.852 7.992 2.556 2.16 1.68 3.552 3.972 4.176 6.876H72.06c-.456-.96-1.092-1.692-1.908-2.196-.792-.504-1.716-.756-2.772-.756-1.632 0-2.94.588-3.924 1.764-.96 1.152-1.44 2.7-1.44 4.644 0 1.968.48 3.54 1.44 4.716.984 1.152 2.292 1.728 3.924 1.728 1.056 0 1.98-.252 2.772-.756.816-.504 1.452-1.236 1.908-2.196h7.596c-.624 2.904-2.016 5.208-4.176 6.912-2.16 1.68-4.824 2.52-7.992 2.52-2.496 0-4.704-.54-6.624-1.62a11.52 11.52 0 01-4.464-4.572c-1.032-1.968-1.548-4.212-1.548-6.732zM102.112 159.62v5.616h-6.767V185h-7.056v-19.764h-6.697v-5.616h20.52zM127.814 167.972a4.06 4.06 0 00-1.692-1.548c-.696-.36-1.524-.54-2.484-.54-1.776 0-3.18.576-4.212 1.728-1.008 1.152-1.512 2.7-1.512 4.644 0 2.184.54 3.852 1.62 5.004 1.104 1.128 2.7 1.692 4.788 1.692 2.472 0 4.236-1.116 5.292-3.348h-7.092v-5.076h13.176v6.84c-.552 1.344-1.368 2.604-2.448 3.78-1.056 1.176-2.4 2.148-4.032 2.916-1.632.744-3.492 1.116-5.58 1.116-2.544 0-4.8-.54-6.768-1.62a11.7 11.7 0 01-4.536-4.572c-1.056-1.968-1.584-4.212-1.584-6.732 0-2.496.528-4.716 1.584-6.66 1.08-1.968 2.592-3.492 4.536-4.572 1.944-1.104 4.188-1.656 6.732-1.656 3.192 0 5.832.768 7.92 2.304 2.088 1.536 3.384 3.636 3.888 6.3h-7.596zM145.916 165.272v4.14h8.1v5.364h-8.1v4.572h9.18V185H138.86v-25.38h16.236v5.652h-9.18zM182.09 185h-7.056l-9.396-14.184V185h-7.056v-25.38h7.056l9.396 14.364V159.62h7.056V185zM193.166 165.272v4.14h8.1v5.364h-8.1v4.572h9.18V185H186.11v-25.38h16.236v5.652h-9.18zM218.684 185l-5.04-9.36h-.756V185h-7.056v-25.38h11.124c2.04 0 3.768.36 5.184 1.08 1.416.696 2.484 1.668 3.204 2.916.72 1.224 1.08 2.604 1.08 4.14 0 1.728-.48 3.252-1.44 4.572-.936 1.296-2.316 2.22-4.14 2.772l5.724 9.9h-7.884zm-5.796-14.184h3.492c.96 0 1.68-.228 2.16-.684.48-.456.72-1.116.72-1.98 0-.816-.252-1.452-.756-1.908-.48-.48-1.188-.72-2.124-.72h-3.492v5.292zM245.689 180.86h-9l-1.368 4.14h-7.416l9.252-25.38h8.136l9.216 25.38h-7.452l-1.368-4.14zm-1.764-5.4l-2.736-8.208-2.7 8.208h5.436zM275.925 159.62v5.616h-6.768V185h-7.056v-19.764h-6.696v-5.616h20.52zM290.704 185.252c-2.376 0-4.56-.552-6.552-1.656a12.786 12.786 0 01-4.752-4.644c-1.152-1.992-1.728-4.236-1.728-6.732 0-2.496.576-4.728 1.728-6.696 1.176-1.992 2.76-3.54 4.752-4.644s4.176-1.656 6.552-1.656c2.4 0 4.584.552 6.552 1.656 1.992 1.104 3.564 2.652 4.716 4.644 1.152 1.968 1.728 4.2 1.728 6.696 0 2.496-.576 4.74-1.728 6.732a12.515 12.515 0 01-4.716 4.644c-1.992 1.104-4.176 1.656-6.552 1.656zm0-6.552c1.8 0 3.216-.588 4.248-1.764 1.056-1.176 1.584-2.748 1.584-4.716 0-2.016-.528-3.6-1.584-4.752-1.032-1.176-2.448-1.764-4.248-1.764-1.824 0-3.252.588-4.284 1.764-1.032 1.152-1.548 2.736-1.548 4.752 0 1.992.516 3.576 1.548 4.752 1.032 1.152 2.46 1.728 4.284 1.728zM319.723 185l-5.04-9.36h-.756V185h-7.056v-25.38h11.124c2.04 0 3.768.36 5.184 1.08 1.416.696 2.484 1.668 3.204 2.916.72 1.224 1.08 2.604 1.08 4.14 0 1.728-.48 3.252-1.44 4.572-.936 1.296-2.316 2.22-4.14 2.772l5.724 9.9h-7.884zm-5.796-14.184h3.492c.96 0 1.68-.228 2.16-.684.48-.456.72-1.116.72-1.98 0-.816-.252-1.452-.756-1.908-.48-.48-1.188-.72-2.124-.72h-3.492v5.292z"/>
  </g>
  <g filter="url(#filter1_d)" fill="#FFF5EE">
    <path d="M7 34.867c0-6.172 1.277-11.661 3.83-16.468 2.613-4.866 6.295-8.634 11.045-11.304C26.625 4.365 32.09 3 38.265 3c7.838 0 14.43 2.107 19.774 6.32 5.344 4.154 8.788 9.82 10.332 17.001H49.577c-1.128-2.373-2.702-4.183-4.721-5.43-1.96-1.246-4.246-1.869-6.859-1.869-4.038 0-7.274 1.454-9.709 4.362-2.375 2.848-3.563 6.676-3.563 11.483 0 4.866 1.188 8.752 3.563 11.66 2.435 2.849 5.671 4.273 9.71 4.273 2.612 0 4.898-.623 6.858-1.87 2.019-1.246 3.593-3.056 4.72-5.43h18.795c-1.544 7.181-4.988 12.878-10.332 17.091-5.345 4.154-11.936 6.231-19.775 6.231-6.175 0-11.638-1.335-16.389-4.006-4.75-2.73-8.432-6.498-11.045-11.304C8.277 46.646 7 41.097 7 34.867zM132.843 3.623v62.754h-17.458v-25.19H94.096v25.19H76.638V3.623h17.458v23.588h21.289V3.623h17.458zM159.936 3.623V40.03c0 3.383.772 5.994 2.316 7.833 1.603 1.84 4.008 2.76 7.215 2.76 3.206 0 5.611-.92 7.214-2.76 1.663-1.899 2.495-4.51 2.495-7.833V3.623h17.458V40.03c0 5.756-1.218 10.682-3.652 14.776-2.435 4.035-5.76 7.092-9.976 9.169C178.849 65.99 174.217 67 169.11 67c-5.107 0-9.679-1.009-13.717-3.026-3.978-2.077-7.126-5.133-9.442-9.169-2.256-4.035-3.384-8.96-3.384-14.776V3.623h17.369zM204.108 34.867c0-6.172 1.277-11.661 3.83-16.468 2.613-4.866 6.295-8.634 11.045-11.304C223.734 4.365 229.197 3 235.373 3c7.838 0 14.43 2.107 19.774 6.32 5.344 4.154 8.788 9.82 10.332 17.001h-18.794c-1.128-2.373-2.702-4.183-4.721-5.43-1.959-1.246-4.246-1.869-6.858-1.869-4.038 0-7.275 1.454-9.709 4.362-2.376 2.848-3.563 6.676-3.563 11.483 0 4.866 1.187 8.752 3.563 11.66 2.434 2.849 5.671 4.273 9.709 4.273 2.612 0 4.899-.623 6.858-1.87 2.019-1.246 3.593-3.056 4.721-5.43h18.794c-1.544 7.181-4.988 12.878-10.332 17.091-5.344 4.154-11.936 6.231-19.774 6.231-6.176 0-11.639-1.335-16.39-4.006-4.75-2.73-8.432-6.498-11.045-11.304-2.553-4.866-3.83-10.415-3.83-16.645zM310.89 66.377l-19.685-27.505v27.505h-17.459V3.623h17.459v27.06l19.507-27.06h20.13l-23.07 30.442L332 66.377h-21.11z"/>
  </g>
  <defs>
    <filter id="filter0_d" x="2.36" y="78.424" width="331.596" height="116.828" filterUnits="userSpaceOnUse" color-interpolation-filters="sRGB">
      <feFlood flood-opacity="0" result="BackgroundImageFix"/>
      <feColorMatrix in="SourceAlpha" values="0 0 0 0 0 0 0 0 0 0 0 0 0 0 0 0 0 0 127 0"/>
      <feMorphology radius="2" operator="dilate" in="SourceAlpha" result="effect1_dropShadow"/>
      <feOffset dy="4"/>
      <feGaussianBlur stdDeviation="2"/>
      <feColorMatrix values="0 0 0 0 0.639216 0 0 0 0 0.0784314 0 0 0 0 0.0941176 0 0 0 0.2 0"/>
      <feBlend in2="BackgroundImageFix" result="effect1_dropShadow"/>
      <feBlend in="SourceGraphic" in2="effect1_dropShadow" result="shape"/>
    </filter>
    <filter id="filter1_d" x=".652" y=".884" width="337.696" height="76.697" filterUnits="userSpaceOnUse" color-interpolation-filters="sRGB">
      <feFlood flood-opacity="0" result="BackgroundImageFix"/>
      <feColorMatrix in="SourceAlpha" values="0 0 0 0 0 0 0 0 0 0 0 0 0 0 0 0 0 0 127 0"/>
      <feMorphology radius="2.116" operator="dilate" in="SourceAlpha" result="effect1_dropShadow"/>
      <feOffset dy="4.232"/>
      <feGaussianBlur stdDeviation="2.116"/>
      <feColorMatrix values="0 0 0 0 0.639216 0 0 0 0 0.0784314 0 0 0 0 0.0941176 0 0 0 0.2 0"/>
      <feBlend in2="BackgroundImageFix" result="effect1_dropShadow"/>
      <feBlend in="SourceGraphic" in2="effect1_dropShadow" result="shape"/>
    </filter>
  </defs>
</svg>
